<svg width="36" height="35" viewBox="0 0 36 35" fill="none" xmlns="http://www.w3.org/2000/svg">
<path d="M19.3696 12.7002L16.6304 22.2875" stroke="white" stroke-width="3" stroke-linecap="round" stroke-linejoin="round"/>
<path d="M13.5477 18.8635L10.8096 16.1239L13.5477 13.3857" stroke="white" stroke-width="3" stroke-linecap="round" stroke-linejoin="round"/>
<path d="M22.4521 21.6037L25.1903 18.8641L22.4521 16.126" stroke="white" stroke-width="3" stroke-linecap="round" stroke-linejoin="round"/>
<path fill-rule="evenodd" clip-rule="evenodd" d="M12.2476 4.55078H23.7524C27.7236 4.55078 30.9429 7.77008 30.9429 11.7413V23.2461C30.9429 25.1531 30.1853 26.982 28.8369 28.3305C27.4884 29.679 25.6595 30.4366 23.7524 30.4366H12.2476C8.27642 30.4366 5.05713 27.2173 5.05713 23.2461V11.7413C5.05713 9.83424 5.8147 8.00531 7.16318 6.65683C8.51166 5.30835 10.3406 4.55078 12.2476 4.55078Z" stroke="white" stroke-width="3" stroke-linecap="round" stroke-linejoin="round"/>
</svg>
