<svg width="16" height="17" viewBox="0 0 16 17" fill="none" xmlns="http://www.w3.org/2000/svg">
<path fill-rule="evenodd" clip-rule="evenodd" d="M4.99733 2.5H11.0033C12.658 2.5 14 3.84133 14 5.49733V11.5033C14 13.158 12.6587 14.5 11.0027 14.5H4.99733C3.342 14.5 2 13.1587 2 11.5027V5.49733C2 3.842 3.34133 2.5 4.99733 2.5V2.5Z" stroke="white" stroke-width="1.5" stroke-linecap="round" stroke-linejoin="round"/>
<path d="M11.2993 4.97552C11.1753 4.97619 11.0746 5.07685 11.0746 5.20085C11.0746 5.32485 11.176 5.42552 11.3 5.42552C11.424 5.42552 11.5246 5.32485 11.5246 5.20085C11.5253 5.07619 11.424 4.97552 11.2993 4.97552" stroke="white" stroke-width="1.5" stroke-linecap="round" stroke-linejoin="round"/>
<path d="M9.69716 6.80304C10.6344 7.7403 10.6344 9.2599 9.69716 10.1972C8.7599 11.1344 7.2403 11.1344 6.30304 10.1972C5.36578 9.2599 5.36578 7.7403 6.30304 6.80304C7.2403 5.86578 8.7599 5.86578 9.69716 6.80304" stroke="white" stroke-width="1.5" stroke-linecap="round" stroke-linejoin="round"/>
</svg>
