<svg width="20" height="19" viewBox="0 0 20 19" fill="none" xmlns="http://www.w3.org/2000/svg">
<path d="M16.3333 8.92374V7.07752C16.3333 6.20307 15.6245 5.49419 14.75 5.49419H10.4189C10.1569 5.49419 9.91178 5.36451 9.76437 5.14786L8.65208 3.51302C8.50466 3.29635 8.25957 3.16668 7.99751 3.16669H4.45833C3.58388 3.16669 2.875 3.87557 2.875 4.75002V14.5155C2.875 14.865 3.01385 15.2002 3.26099 15.4474C3.50814 15.6945 3.84334 15.8334 4.19286 15.8334V15.8334C4.81053 15.8333 5.34532 15.4043 5.47931 14.8014L6.55783 9.94821C6.71882 9.22379 7.36134 8.70837 8.10344 8.70835H15.541C16.0213 8.70835 16.4756 8.92633 16.7761 9.30095C17.0766 9.67557 17.1908 10.1663 17.0867 10.6352L16.207 14.5935C16.046 15.3179 15.4035 15.8334 14.6614 15.8334H4.19286" stroke="white" stroke-width="1.5" stroke-linecap="round" stroke-linejoin="round"/>
</svg>
