<svg width="20" height="20" viewBox="0 0 20 20" fill="none" xmlns="http://www.w3.org/2000/svg">
<path d="M15.164 13.2766V13.2766L16.8107 14.9232C17.174 15.2866 17.174 15.8766 16.8107 16.2399L15.8223 17.2282C15.459 17.5916 14.869 17.5916 14.5057 17.2282L12.859 15.5816L11.6182 16.8224C11.3732 17.0674 10.9565 16.9691 10.8473 16.6407L8.454 9.4599C8.33233 9.09573 8.679 8.7499 9.04317 8.87073L16.224 11.2641C16.5523 11.3732 16.6507 11.7899 16.4057 12.0349L15.164 13.2766" stroke="#333333" stroke-width="1.5" stroke-linecap="round" stroke-linejoin="round"/>
<path d="M3.9835 9.10856H2.0835" stroke="#333333" stroke-width="1.5" stroke-linecap="round" stroke-linejoin="round"/>
<path d="M5.3666 5.78311L4.0166 4.43311" stroke="#333333" stroke-width="1.5" stroke-linecap="round" stroke-linejoin="round"/>
<path d="M5.3334 12.4668L3.9834 13.8168" stroke="#333333" stroke-width="1.5" stroke-linecap="round" stroke-linejoin="round"/>
<path d="M8.69157 4.4V2.5" stroke="#333333" stroke-width="1.5" stroke-linecap="round" stroke-linejoin="round"/>
<path d="M12.0498 5.7499L13.3998 4.3999" stroke="#333333" stroke-width="1.5" stroke-linecap="round" stroke-linejoin="round"/>
</svg>
