<svg width="20" height="20" viewBox="0 0 20 20" fill="none" xmlns="http://www.w3.org/2000/svg">
<path d="M12.8086 16.0074L16.0079 12.8081" stroke="#333333" stroke-width="1.5" stroke-linecap="round" stroke-linejoin="round"/>
<path d="M3.89307 7.2264L7.2264 3.89307" stroke="#333333" stroke-width="1.5" stroke-linecap="round" stroke-linejoin="round"/>
<path d="M10.2367 6.90333L6.32149 2.98816C6.00893 2.6756 5.58501 2.5 5.14298 2.5C4.70095 2.5 4.27703 2.6756 3.96446 2.98816L2.98816 3.96446C2.6756 4.27703 2.5 4.70095 2.5 5.14298C2.5 5.58501 2.6756 6.00893 2.98816 6.32149L7.07666 10.41" stroke="#333333" stroke-width="1.5" stroke-linecap="round" stroke-linejoin="round"/>
<path d="M13.0964 9.76318L15.5185 12.1852C15.8844 12.5511 16.1601 12.9972 16.3237 13.4882L17.478 16.9511C17.528 17.1008 17.489 17.2659 17.3774 17.3775C17.2658 17.4891 17.1007 17.528 16.951 17.4781L13.4881 16.3238C12.9971 16.1602 12.5511 15.8845 12.1851 15.5186L9.58984 12.9233" stroke="#333333" stroke-width="1.5" stroke-linecap="round" stroke-linejoin="round"/>
<path d="M5.64941 12.5333C6.80525 10.6204 8.20592 8.86667 9.8159 7.31648C13.1749 3.9575 16.5396 1.87636 17.3313 2.66807C18.1231 3.45978 16.0419 6.82457 12.6827 10.1833C11.1327 11.7934 9.37898 13.1942 7.46608 14.35" stroke="#333333" stroke-width="1.5" stroke-linecap="round" stroke-linejoin="round"/>
<path fill-rule="evenodd" clip-rule="evenodd" d="M5.80438 16.9068L3.53605 17.4739C3.25204 17.5449 2.95161 17.4617 2.74461 17.2547C2.5376 17.0477 2.45439 16.7472 2.52539 16.4632L3.09387 14.1893C3.34257 13.1945 4.23741 12.4974 5.26284 12.4995H5.26863C6.50204 12.5021 7.50038 13.503 7.49978 14.7364V14.7364C7.4993 15.7631 6.8004 16.6578 5.80438 16.9068Z" stroke="#333333" stroke-width="1.5" stroke-linecap="round" stroke-linejoin="round"/>
</svg>
