<svg width="40" height="50" viewBox="0 0 40 50" fill="none" xmlns="http://www.w3.org/2000/svg">
<g clip-path="url(#clip0_2203_6037)">
<path d="M0.137939 12.7015V32.4153C0.137939 33.4393 0.674934 34.3781 1.55109 34.8901L18.5088 44.7328C19.3849 45.2449 20.459 45.2449 21.3351 44.7328L38.2928 34.8901C39.169 34.3781 39.706 33.4393 39.706 32.4153V12.7015C39.706 11.6774 39.169 10.7387 38.2928 10.2267L21.3351 0.384033C20.459 -0.128011 19.3849 -0.128011 18.5088 0.384033L1.55109 10.2551C0.674934 10.7671 0.137939 11.7059 0.137939 12.7015Z" fill="#0F2B46"/>
<path d="M26.9877 49.6546L26.9595 45.3876L26.9877 41.4619L17.0957 43.9083" fill="#0F2B46"/>
<path d="M26.5352 41.1203L28.4005 40.6367L27.6939 41.035C27.27 41.291 26.9874 41.7461 26.9874 42.2582V43.0547L26.5352 41.1203Z" fill="#142C46"/>
<path d="M13.0811 13.584C14.2117 12.4746 16.0205 12.4746 17.151 13.584C18.3663 14.7503 18.3663 16.6847 17.151 17.8511C16.0205 18.9605 14.2117 18.9605 13.0811 17.8511C11.8659 16.6847 11.8659 14.7503 13.0811 13.584Z" fill="white"/>
<path d="M25.7994 21.0089C26.9299 19.8994 28.7387 19.8994 29.8693 21.0089C31.0846 22.1752 31.0846 24.1095 29.8693 25.2759C28.7387 26.3853 26.9299 26.3853 25.7994 25.2759C24.5841 24.1095 24.5841 22.1752 25.7994 21.0089Z" fill="white"/>
<path d="M13.0811 28.8604C14.2117 27.751 16.0205 27.751 17.151 28.8604C18.3663 30.0267 18.3663 31.9611 17.151 33.1274C16.0205 34.2368 14.2117 34.2368 13.0811 33.1274C11.8659 31.9611 11.8659 30.0267 13.0811 28.8604Z" fill="white"/>
<path d="M16.5298 17.3104L25.0086 22.2317L26.4218 21.4351L17.9429 16.4854L16.5298 17.3104Z" fill="white"/>
<path d="M25.5739 25.8444L17.9429 30.2821L16.5298 29.4572L24.1607 25.0479L25.5739 25.8444Z" fill="white"/>
</g>
<defs>
<clipPath id="clip0_2203_6037">
<rect width="39.7059" height="50" fill="white"/>
</clipPath>
</defs>
</svg>
