<svg width="50" height="50" viewBox="0 0 50 50" fill="none" xmlns="http://www.w3.org/2000/svg">
<g clip-path="url(#clip0_2203_6057)">
<path d="M25 49.5003V40.0003C35.0556 40.0003 42.8611 30.0281 39 19.4448C37.5833 15.5281 34.4444 12.3892 30.5278 10.9725C19.9444 7.1392 9.97222 14.917 9.97222 24.9725H0.5C0.5 8.94475 16 -3.55524 32.8056 1.69476C40.1389 4.00031 46 9.83365 48.2778 17.167C53.5278 34.0003 41.0556 49.5003 25 49.5003Z" fill="#0080FF"/>
<path d="M25.0277 40.0284H15.5833V30.584H25.0277V40.0284Z" fill="#0080FF"/>
<path d="M15.5834 47.3061H8.30566V40.0283H15.5834V47.3061Z" fill="#0080FF"/>
<path d="M8.3055 40.0277H2.22217V33.9443H8.3055V40.0277Z" fill="#0080FF"/>
</g>
<defs>
<clipPath id="clip0_2203_6057">
<rect width="50" height="50" fill="white"/>
</clipPath>
</defs>
</svg>
