<svg width="34" height="50" viewBox="0 0 34 50" fill="none" xmlns="http://www.w3.org/2000/svg">
<g clip-path="url(#clip0_2203_5996)">
<path d="M16.6667 25.0004C16.6667 20.445 20.3597 16.752 24.9152 16.752C29.4707 16.752 33.1637 20.445 33.1637 25.0004C33.1637 29.556 29.4707 33.2489 24.9152 33.2489C20.3597 33.2489 16.6667 29.556 16.6667 25.0004Z" fill="#1ABCFE"/>
<path d="M0.169678 41.4965C0.169678 36.9411 3.86265 33.248 8.41817 33.248H16.6667V41.4965C16.6667 46.0521 12.9737 49.745 8.41817 49.745C3.86265 49.745 0.169678 46.0521 0.169678 41.4965Z" fill="#0ACF83"/>
<path d="M16.6667 0.254883V16.7518H24.9152C29.4708 16.7518 33.1637 13.0589 33.1637 8.50337C33.1637 3.94786 29.4708 0.254883 24.9152 0.254883H16.6667Z" fill="#FF7262"/>
<path d="M0.169678 8.50338C0.169678 13.0589 3.86265 16.7518 8.41817 16.7518H16.6667V0.254883H8.41817C3.86265 0.254883 0.169678 3.94786 0.169678 8.50338Z" fill="#F24E1E"/>
<path d="M0.169678 25.0004C0.169678 29.556 3.86265 33.2489 8.41817 33.2489H16.6667V16.752H8.41817C3.86265 16.752 0.169678 20.445 0.169678 25.0004Z" fill="#A259FF"/>
</g>
<defs>
<clipPath id="clip0_2203_5996">
<rect width="33.3333" height="50" fill="white"/>
</clipPath>
</defs>
</svg>
