<svg width="50" height="50" viewBox="0 0 50 50" fill="none" xmlns="http://www.w3.org/2000/svg">
<rect width="50" height="50" rx="20" fill="#FAFAFA"/>
<path d="M18.4074 28.0002C18.4074 29.315 17.3333 30.3891 16.0185 30.3891C14.7037 30.3891 13.6296 29.315 13.6296 28.0002C13.6296 26.6854 14.7037 25.6113 16.0185 25.6113H18.4074V28.0002Z" fill="#E01E5A"/>
<path d="M19.6111 28.0002C19.6111 26.6854 20.6852 25.6113 22 25.6113C23.3148 25.6113 24.3889 26.6854 24.3889 28.0002V33.9817C24.3889 35.2965 23.3148 36.3706 22 36.3706C20.6852 36.3706 19.6111 35.2965 19.6111 33.9817V28.0002Z" fill="#E01E5A"/>
<path d="M22 18.4077C20.6852 18.4077 19.6111 17.3336 19.6111 16.0188C19.6111 14.704 20.6852 13.6299 22 13.6299C23.3148 13.6299 24.3889 14.704 24.3889 16.0188V18.4077H22Z" fill="#36C5F0"/>
<path d="M22 19.6113C23.3148 19.6113 24.3889 20.6854 24.3889 22.0002C24.3889 23.315 23.3148 24.3891 22 24.3891H16.0185C14.7037 24.3891 13.6296 23.315 13.6296 22.0002C13.6296 20.6854 14.7037 19.6113 16.0185 19.6113H22Z" fill="#36C5F0"/>
<path d="M31.5925 22.0002C31.5925 20.6854 32.6666 19.6113 33.9814 19.6113C35.2962 19.6113 36.3703 20.6854 36.3703 22.0002C36.3703 23.315 35.2962 24.3891 33.9814 24.3891H31.5925V22.0002Z" fill="#2EB67D"/>
<path d="M30.3889 22.0003C30.3889 23.3151 29.3148 24.3891 28 24.3891C26.6852 24.3891 25.6111 23.3151 25.6111 22.0003V16.0188C25.6111 14.704 26.6852 13.6299 28 13.6299C29.3148 13.6299 30.3889 14.704 30.3889 16.0188V22.0003Z" fill="#2EB67D"/>
<path d="M28 31.5928C29.3148 31.5928 30.3889 32.6668 30.3889 33.9817C30.3889 35.2965 29.3148 36.3705 28 36.3705C26.6852 36.3705 25.6111 35.2965 25.6111 33.9817V31.5928H28Z" fill="#ECB22E"/>
<path d="M28 30.3891C26.6852 30.3891 25.6111 29.315 25.6111 28.0002C25.6111 26.6854 26.6852 25.6113 28 25.6113H33.9815C35.2963 25.6113 36.3703 26.6854 36.3703 28.0002C36.3703 29.315 35.2963 30.3891 33.9815 30.3891H28Z" fill="#ECB22E"/>
</svg>
