<svg width="50" height="50" viewBox="0 0 50 50" fill="none" xmlns="http://www.w3.org/2000/svg">
<g clip-path="url(#clip0_2203_5801)">
<path d="M25 50C38.8071 50 50 38.8071 50 25C50 11.1929 38.8071 0 25 0C11.1929 0 0 11.1929 0 25C0 38.8071 11.1929 50 25 50Z" fill="url(#paint0_linear_2203_5801)"/>
<path d="M40.1027 37.2754L25.4542 6.77246C25.2589 6.3623 24.6778 6.3623 24.4777 6.77246L9.82922 37.2754C9.62414 37.6953 10.0196 38.0957 10.4445 37.8955L21.4601 32.7979C21.548 32.7588 21.6407 32.7539 21.7286 32.7832C21.8312 32.8174 21.9142 32.8955 21.9532 33.0029L24.712 40.9766C24.7999 41.2158 25.1368 41.2158 25.2198 40.9766L27.9786 33.0029C28.0177 32.8955 28.1007 32.8174 28.2032 32.7832C28.2862 32.7539 28.3839 32.7588 28.4718 32.7979L39.4874 37.8955C39.9073 38.0957 40.3028 37.7002 40.1027 37.2754Z" fill="url(#paint1_linear_2203_5801)"/>
<path d="M24.9659 6.46973C24.7706 6.46973 24.5753 6.57227 24.4777 6.77734L9.82922 37.2803C9.62414 37.7002 10.0196 38.1006 10.4445 37.9004L21.4601 32.8027C21.548 32.7637 21.6407 32.7588 21.7286 32.7881L24.5607 7.11426C24.5802 6.92383 24.8048 6.78711 24.9708 6.78711V6.46973H24.9659Z" fill="url(#paint2_linear_2203_5801)"/>
<path d="M28.2031 32.783C28.1006 32.8171 28.0176 32.8953 27.9785 33.0027L25.2197 40.9763C25.1367 41.2156 24.7949 41.2156 24.7119 40.9763L21.9531 33.0027C21.9141 32.8953 21.8262 32.8171 21.7285 32.783L24.5605 7.06519C24.5996 6.68921 25.3271 6.68921 25.3711 7.06519L28.2031 32.783Z" fill="url(#paint3_linear_2203_5801)"/>
<path d="M25.3662 7.06543C25.3467 6.875 25.1074 6.78223 24.9609 6.78223V41.1621C25.0684 41.1621 25.1758 41.1035 25.2148 40.9814L27.9785 33.0029C28.0176 32.8955 28.1006 32.8174 28.2031 32.7832L25.3662 7.06543Z" fill="url(#paint4_linear_2203_5801)"/>
<path d="M25.3516 6.93378L28.1152 32.8225C28.1445 32.8029 28.1738 32.7883 28.2031 32.7785C28.2324 32.7687 28.2617 32.7639 28.291 32.759L25.4883 6.92401C25.4834 6.88495 25.4639 6.87518 25.415 6.88007C25.3662 6.88495 25.3467 6.8996 25.3516 6.93378Z" fill="url(#paint5_linear_2203_5801)"/>
<path d="M24.5752 6.93866L21.8115 32.8273C21.7822 32.8078 21.7529 32.7932 21.7236 32.7834C21.6943 32.7736 21.665 32.7687 21.6357 32.7639L24.4385 6.91913C24.4434 6.88007 24.4629 6.8703 24.5117 6.87518C24.5654 6.88495 24.5801 6.8996 24.5752 6.93866Z" fill="url(#paint6_linear_2203_5801)"/>
<path d="M24.5947 7.40723C24.8926 7.85156 24.9658 8.68164 24.9658 9.21875C24.9658 8.68164 25.0342 7.85156 25.3369 7.40723H24.5947Z" fill="white"/>
<path d="M25.5013 7.09861C25.5492 6.80314 25.3486 6.52475 25.0531 6.4768C24.7577 6.42885 24.4793 6.6295 24.4313 6.92497C24.3834 7.22044 24.584 7.49883 24.8795 7.54678C25.1749 7.59473 25.4533 7.39408 25.5013 7.09861Z" fill="white"/>
<path d="M24.9707 41.1621L25.0586 7.09961C25.0586 7.05078 25.0195 7.01172 24.9707 7.01172C24.9219 7.01172 24.8828 7.05078 24.8828 7.09961L24.9707 41.1621Z" fill="url(#paint7_linear_2203_5801)"/>
</g>
<defs>
<linearGradient id="paint0_linear_2203_5801" x1="19.4575" y1="45.6855" x2="30.5895" y2="4.1405" gradientUnits="userSpaceOnUse">
<stop stop-color="#1455F0"/>
<stop offset="1" stop-color="#0A96F0"/>
</linearGradient>
<linearGradient id="paint1_linear_2203_5801" x1="21.9976" y1="8.32464" x2="26.4209" y2="41.688" gradientUnits="userSpaceOnUse">
<stop stop-color="white"/>
<stop offset="1" stop-color="#DAE5F5"/>
</linearGradient>
<linearGradient id="paint2_linear_2203_5801" x1="19.571" y1="8.3534" x2="8.10564" y2="36.0847" gradientUnits="userSpaceOnUse">
<stop stop-color="#DAE5F2"/>
<stop offset="0.2396" stop-color="#D5E2F1"/>
<stop offset="0.5219" stop-color="#C7D9EE"/>
<stop offset="0.8246" stop-color="#AFCBE9"/>
<stop offset="1" stop-color="#9EC0E6"/>
</linearGradient>
<linearGradient id="paint3_linear_2203_5801" x1="24.9658" y1="7.19086" x2="24.9658" y2="40.677" gradientUnits="userSpaceOnUse">
<stop stop-color="#FAFCFF"/>
<stop offset="1" stop-color="#CEDCF2"/>
</linearGradient>
<linearGradient id="paint4_linear_2203_5801" x1="26.5678" y1="7.45951" x2="28.3889" y2="40.9484" gradientUnits="userSpaceOnUse">
<stop stop-color="#D0DEF2"/>
<stop offset="1" stop-color="#72A0DC"/>
</linearGradient>
<linearGradient id="paint5_linear_2203_5801" x1="26.8209" y1="7.18582" x2="26.8209" y2="32.4624" gradientUnits="userSpaceOnUse">
<stop stop-color="white"/>
<stop offset="1" stop-color="#EBF0FF"/>
</linearGradient>
<linearGradient id="paint6_linear_2203_5801" x1="23.1059" y1="7.18624" x2="23.1059" y2="32.4624" gradientUnits="userSpaceOnUse">
<stop stop-color="white"/>
<stop offset="1" stop-color="#EBF0FF"/>
</linearGradient>
<linearGradient id="paint7_linear_2203_5801" x1="24.9707" y1="7.41606" x2="24.9707" y2="40.6802" gradientUnits="userSpaceOnUse">
<stop stop-color="white"/>
<stop offset="1" stop-color="#CEDCF2"/>
</linearGradient>
<clipPath id="clip0_2203_5801">
<rect width="50" height="50" fill="white"/>
</clipPath>
</defs>
</svg>
