<svg width="50" height="50" viewBox="0 0 50 50" fill="none" xmlns="http://www.w3.org/2000/svg">
<g clip-path="url(#clip0_2203_5833)">
<path d="M39.5654 22.2058C31.6283 17.4922 18.5362 17.0588 10.9593 19.3584C9.74254 19.7277 8.4558 19.0406 8.08723 17.8242C7.71843 16.6066 8.40458 15.3208 9.62228 14.9509C18.3201 12.3108 32.7789 12.8206 41.9162 18.2446C43.0106 18.8944 43.3696 20.3079 42.721 21.4004C42.0717 22.4948 40.6572 22.8555 39.5654 22.2058ZM39.3055 29.1873C38.7486 30.0909 37.5672 30.3743 36.6648 29.8195C30.0476 25.752 19.9575 24.5737 12.1289 26.95C11.1137 27.2568 10.0414 26.6844 9.73302 25.6711C9.42713 24.6559 9.99982 23.5856 11.0132 23.2768C19.9562 20.5631 31.0738 21.8775 38.6739 26.548C39.5763 27.1038 39.8603 28.2858 39.3055 29.1873ZM36.2926 35.8921C35.85 36.6178 34.9053 36.8451 34.1823 36.4028C28.4001 32.8689 21.1222 32.0709 12.5512 34.0285C11.7253 34.2179 10.9021 33.7003 10.7138 32.8744C10.5246 32.0488 11.0402 31.2255 11.8679 31.0371C21.2474 28.8928 29.2932 29.8157 35.7833 33.7815C36.5069 34.2235 36.7348 35.1688 36.2926 35.8921ZM25.0001 0.376951C11.4013 0.376951 0.376953 11.4011 0.376953 24.9997C0.376953 38.5999 11.4013 49.623 25.0001 49.623C38.5992 49.623 49.623 38.5999 49.623 24.9997C49.623 11.4011 38.5992 0.376951 25.0001 0.376951Z" fill="#1ED760"/>
</g>
<defs>
<clipPath id="clip0_2203_5833">
<rect width="50" height="50" fill="white"/>
</clipPath>
</defs>
</svg>
