<svg width="50" height="50" viewBox="0 0 50 50" fill="none" xmlns="http://www.w3.org/2000/svg">
<g clip-path="url(#clip0_2203_6015)">
<mask id="mask0_2203_6015" style="mask-type:alpha" maskUnits="userSpaceOnUse" x="0" y="0" width="50" height="50">
<path fill-rule="evenodd" clip-rule="evenodd" d="M35.4559 49.6586C36.2434 49.9654 37.1414 49.9457 37.9363 49.5633L48.2305 44.6099C49.3121 44.0894 50 42.9945 50 41.7935V8.20663C50 7.00561 49.3121 5.91087 48.2305 5.39036L37.9363 0.436847C36.8932 -0.0650951 35.6723 0.0578495 34.7568 0.723442C34.626 0.818524 34.5014 0.924685 34.3846 1.04168L14.6775 19.0207L6.09359 12.5048C5.29451 11.8982 4.17682 11.9479 3.43467 12.623L0.681515 15.1274C-0.226276 15.9532 -0.227317 17.3813 0.679267 18.2084L8.12355 25L0.679267 31.7916C-0.227317 32.6187 -0.226276 34.0468 0.681515 34.8726L3.43467 37.3769C4.17682 38.0521 5.29451 38.1017 6.09359 37.4953L14.6775 30.9793L34.3846 48.9584C34.6963 49.2703 35.0623 49.5052 35.4559 49.6586ZM37.5076 13.6494L22.5545 25L37.5076 36.3506V13.6494Z" fill="white"/>
</mask>
<g mask="url(#mask0_2203_6015)">
<path d="M48.2305 5.39766L37.9283 0.437328C36.7359 -0.136829 35.3107 0.105363 34.3748 1.04122L0.649162 31.7912C-0.257973 32.6183 -0.25693 34.0464 0.651412 34.8722L3.40623 37.3765C4.14885 38.0517 5.26723 38.1013 6.06678 37.4949L46.6803 6.6845C48.0428 5.65087 49.9998 6.62266 49.9998 8.3329V8.21329C49.9998 7.0128 49.3121 5.91845 48.2305 5.39766Z" fill="#0065A9"/>
<g filter="url(#filter0_d_2203_6015)">
<path d="M48.2305 44.6018L37.9283 49.5622C36.7359 50.1362 35.3107 49.894 34.3748 48.9582L0.649162 18.2083C-0.257973 17.3812 -0.25693 15.953 0.651412 15.1273L3.40623 12.6229C4.14885 11.9478 5.26723 11.8981 6.06678 12.5046L46.6803 43.3149C48.0428 44.3485 49.9998 43.3768 49.9998 41.6664V41.7862C49.9998 42.9866 49.3121 44.0809 48.2305 44.6018Z" fill="#007ACC"/>
</g>
<g filter="url(#filter1_d_2203_6015)">
<path d="M37.9289 49.5631C36.7361 50.1368 35.3109 49.8944 34.375 48.9584C35.5281 50.1116 37.5 49.2948 37.5 47.6639V2.33609C37.5 0.705224 35.5281 -0.111523 34.375 1.04168C35.3109 0.105731 36.7361 -0.136802 37.9289 0.436847L48.2293 5.39037C49.3117 5.91087 50 7.00562 50 8.20664V41.7936C50 42.9946 49.3117 44.0893 48.2293 44.6098L37.9289 49.5631Z" fill="#1F9CF0"/>
</g>
<g style="mix-blend-mode:overlay" opacity="0.25">
<path fill-rule="evenodd" clip-rule="evenodd" d="M35.4254 49.6586C36.2129 49.9652 37.1109 49.9457 37.9057 49.5633L48.1998 44.6098C49.2816 44.0893 49.9695 42.9945 49.9695 41.7936V8.20662C49.9695 7.00561 49.2816 5.91086 48.2 5.39035L37.9057 0.436848C36.8627 -0.0650953 35.6418 0.0578492 34.7262 0.723442C34.5955 0.818524 34.4709 0.924684 34.3539 1.04168L14.647 19.0207L6.06307 12.5048C5.264 11.8982 4.14629 11.9479 3.40414 12.623L0.650998 15.1274C-0.256793 15.9532 -0.257834 17.3814 0.64875 18.2085L8.09305 25L0.64875 31.7916C-0.257834 32.6188 -0.256793 34.0469 0.650998 34.8727L3.40414 37.377C4.14629 38.0522 5.264 38.1018 6.06307 37.4953L14.647 30.9793L34.3539 48.9584C34.6656 49.2703 35.0318 49.5053 35.4254 49.6586ZM37.4771 13.6494L22.524 25L37.4771 36.3506V13.6494Z" fill="url(#paint0_linear_2203_6015)"/>
</g>
</g>
</g>
<defs>
<filter id="filter0_d_2203_6015" x="-21.3639" y="-9.25235" width="92.6971" height="80.4559" filterUnits="userSpaceOnUse" color-interpolation-filters="sRGB">
<feFlood flood-opacity="0" result="BackgroundImageFix"/>
<feColorMatrix in="SourceAlpha" type="matrix" values="0 0 0 0 0 0 0 0 0 0 0 0 0 0 0 0 0 0 127 0" result="hardAlpha"/>
<feOffset/>
<feGaussianBlur stdDeviation="10.6667"/>
<feColorMatrix type="matrix" values="0 0 0 0 0 0 0 0 0 0 0 0 0 0 0 0 0 0 0.25 0"/>
<feBlend mode="overlay" in2="BackgroundImageFix" result="effect1_dropShadow_2203_6015"/>
<feBlend mode="normal" in="SourceGraphic" in2="effect1_dropShadow_2203_6015" result="shape"/>
</filter>
<filter id="filter1_d_2203_6015" x="13.0416" y="-21.2045" width="58.2918" height="92.409" filterUnits="userSpaceOnUse" color-interpolation-filters="sRGB">
<feFlood flood-opacity="0" result="BackgroundImageFix"/>
<feColorMatrix in="SourceAlpha" type="matrix" values="0 0 0 0 0 0 0 0 0 0 0 0 0 0 0 0 0 0 127 0" result="hardAlpha"/>
<feOffset/>
<feGaussianBlur stdDeviation="10.6667"/>
<feColorMatrix type="matrix" values="0 0 0 0 0 0 0 0 0 0 0 0 0 0 0 0 0 0 0.25 0"/>
<feBlend mode="overlay" in2="BackgroundImageFix" result="effect1_dropShadow_2203_6015"/>
<feBlend mode="normal" in="SourceGraphic" in2="effect1_dropShadow_2203_6015" result="shape"/>
</filter>
<linearGradient id="paint0_linear_2203_6015" x1="24.9695" y1="0.128906" x2="24.9695" y2="49.8711" gradientUnits="userSpaceOnUse">
<stop stop-color="white"/>
<stop offset="1" stop-color="white" stop-opacity="0"/>
</linearGradient>
<clipPath id="clip0_2203_6015">
<rect width="50" height="50" fill="white"/>
</clipPath>
</defs>
</svg>
