<svg width="93" height="32" viewBox="0 0 93 32" fill="none" xmlns="http://www.w3.org/2000/svg">
<path d="M40 7H43V13.44H43.04C43.3867 12.9733 43.8267 12.6467 44.36 12.46C44.9067 12.26 45.4933 12.16 46.12 12.16C46.8133 12.16 47.4333 12.3067 47.98 12.6C48.5267 12.88 48.9867 13.26 49.36 13.74C49.7467 14.22 50.04 14.7733 50.24 15.4C50.4533 16.0133 50.56 16.66 50.56 17.34C50.56 18.0733 50.4467 18.7467 50.22 19.36C49.9933 19.9733 49.6667 20.5067 49.24 20.96C48.8267 21.4 48.3267 21.7467 47.74 22C47.1533 22.24 46.5 22.36 45.78 22.36C45.4333 22.36 45.1067 22.3133 44.8 22.22C44.4933 22.1267 44.2067 22.0067 43.94 21.86C43.6867 21.7133 43.46 21.5533 43.26 21.38C43.0733 21.1933 42.92 21.0133 42.8 20.84H42.76V22.12H40V7ZM42.76 17.26C42.76 17.9933 42.9667 18.5867 43.38 19.04C43.8067 19.4933 44.4 19.72 45.16 19.72C45.92 19.72 46.5067 19.4933 46.92 19.04C47.3467 18.5867 47.56 17.9933 47.56 17.26C47.56 16.5267 47.3467 15.9333 46.92 15.48C46.5067 15.0267 45.92 14.8 45.16 14.8C44.4 14.8 43.8067 15.0267 43.38 15.48C42.9667 15.9333 42.76 16.5267 42.76 17.26Z" fill="white" fill-opacity="0.7"/>
<path d="M52.3177 12.4H55.3177V13.96H55.3577C55.6777 13.36 56.0577 12.9133 56.4977 12.62C56.9377 12.3133 57.491 12.16 58.1577 12.16C58.331 12.16 58.5043 12.1667 58.6777 12.18C58.851 12.1933 59.011 12.22 59.1577 12.26V15C58.9443 14.9333 58.731 14.8867 58.5177 14.86C58.3177 14.82 58.1043 14.8 57.8777 14.8C57.3043 14.8 56.851 14.88 56.5177 15.04C56.1843 15.2 55.9243 15.4267 55.7377 15.72C55.5643 16 55.451 16.34 55.3977 16.74C55.3443 17.14 55.3177 17.58 55.3177 18.06V22.12H52.3177V12.4Z" fill="white" fill-opacity="0.7"/>
<path d="M66.5622 20.9H66.5222C66.1889 21.42 65.7422 21.7933 65.1822 22.02C64.6355 22.2467 64.0555 22.36 63.4422 22.36C62.9889 22.36 62.5489 22.2933 62.1222 22.16C61.7089 22.04 61.3422 21.8533 61.0222 21.6C60.7022 21.3467 60.4489 21.0333 60.2622 20.66C60.0755 20.2867 59.9822 19.8533 59.9822 19.36C59.9822 18.8 60.0822 18.3267 60.2822 17.94C60.4955 17.5533 60.7755 17.2333 61.1222 16.98C61.4822 16.7267 61.8889 16.5333 62.3422 16.4C62.7955 16.2533 63.2622 16.1467 63.7422 16.08C64.2355 16.0133 64.7222 15.9733 65.2022 15.96C65.6955 15.9467 66.1489 15.94 66.5622 15.94C66.5622 15.4067 66.3689 14.9867 65.9822 14.68C65.6089 14.36 65.1622 14.2 64.6422 14.2C64.1489 14.2 63.6955 14.3067 63.2822 14.52C62.8822 14.72 62.5222 15 62.2022 15.36L60.6022 13.72C61.1622 13.2 61.8155 12.8133 62.5622 12.56C63.3089 12.2933 64.0822 12.16 64.8822 12.16C65.7622 12.16 66.4822 12.2733 67.0422 12.5C67.6155 12.7133 68.0689 13.0333 68.4022 13.46C68.7489 13.8867 68.9889 14.4133 69.1222 15.04C69.2555 15.6533 69.3222 16.3667 69.3222 17.18V22.12H66.5622V20.9ZM65.8222 17.86C65.5955 17.86 65.3089 17.8733 64.9622 17.9C64.6289 17.9133 64.3022 17.9667 63.9822 18.06C63.6755 18.1533 63.4089 18.2933 63.1822 18.48C62.9689 18.6667 62.8622 18.9267 62.8622 19.26C62.8622 19.62 63.0155 19.8867 63.3222 20.06C63.6289 20.2333 63.9489 20.32 64.2822 20.32C64.5755 20.32 64.8555 20.28 65.1222 20.2C65.4022 20.12 65.6489 20.0067 65.8622 19.86C66.0755 19.7133 66.2422 19.5267 66.3622 19.3C66.4955 19.0733 66.5622 18.8067 66.5622 18.5V17.86H65.8222Z" fill="white" fill-opacity="0.7"/>
<path d="M70.1844 12.4H73.4244L75.8844 19H75.9244L78.2044 12.4H81.2244L77.3844 22.12H74.2044L70.1844 12.4Z" fill="white" fill-opacity="0.7"/>
<path d="M87.9177 23.7C87.7177 24.22 87.5243 24.68 87.3377 25.08C87.151 25.48 86.911 25.8133 86.6177 26.08C86.3377 26.36 85.9777 26.5667 85.5377 26.7C85.0977 26.8467 84.5177 26.92 83.7977 26.92C83.0243 26.92 82.2777 26.8 81.5577 26.56L81.9577 24.1C82.411 24.3 82.8777 24.4 83.3577 24.4C83.691 24.4 83.9643 24.36 84.1777 24.28C84.391 24.2133 84.5643 24.1067 84.6977 23.96C84.8443 23.8267 84.9643 23.66 85.0577 23.46C85.151 23.26 85.251 23.0267 85.3577 22.76L85.5777 22.2L81.3177 12.4H84.5577L87.0577 18.82H87.0977L89.2377 12.4H92.3177L87.9177 23.7Z" fill="white" fill-opacity="0.7"/>
<path d="M16 32C24.8366 32 32 24.8366 32 16C32 7.16344 24.8366 0 16 0C7.16344 0 0 7.16344 0 16C0 24.8366 7.16344 32 16 32Z" fill="white" fill-opacity="0.7"/>
<path d="M9.55556 17.0489V20.6044L15.7778 24L22 20.6044V17.0489L15.7778 20.4444L9.55556 17.0489ZM15.7778 8L6 13.3333L15.7778 18.6667L23.7778 14.3022V20.4444H25.5556V13.3333L15.7778 8Z" fill="#101928" fill-opacity="0.5"/>
</svg>
