<svg width="44" height="44" viewBox="0 0 44 44" fill="none" xmlns="http://www.w3.org/2000/svg">
<rect width="44" height="44" rx="22" fill="#101928"/>
<path fill-rule="evenodd" clip-rule="evenodd" d="M19.7029 14.095L13.5289 17.525C12.2309 18.246 12.2309 20.112 13.5289 20.833L19.7029 24.263C21.1309 25.056 22.8679 25.056 24.2969 24.263L30.4709 20.833C31.7689 20.112 31.7689 18.246 30.4709 17.525L24.2969 14.095C22.8679 13.302 21.1319 13.302 19.7029 14.095Z" stroke="white" stroke-width="1.5" stroke-linecap="round" stroke-linejoin="round"/>
<path d="M15.991 22.2V26.124C15.991 27.073 16.466 27.958 17.255 28.483L18.862 29.552C20.763 30.816 23.237 30.816 25.137 29.552L26.744 28.483C27.534 27.958 28.008 27.072 28.008 26.124V22.2" stroke="white" stroke-width="1.5" stroke-linecap="round" stroke-linejoin="round"/>
</svg>
