<svg width="44" height="44" viewBox="0 0 44 44" fill="none" xmlns="http://www.w3.org/2000/svg">
<rect width="44" height="44" rx="22" fill="#EBEEF3"/>
<path d="M26.793 24.238V27.601C25.8937 28.057 24.9627 28.285 24 28.285C21.9354 28.285 20.276 27.6707 19.022 26.442C17.7047 25.1627 17.046 23.5603 17.046 21.635C17.046 19.735 17.7047 18.1453 19.022 16.866C20.276 15.65 21.853 15.042 23.753 15.042C24.6904 15.042 25.7037 15.2763 26.793 15.745V19.127C25.9444 18.2277 24.9564 17.778 23.829 17.778C22.7904 17.778 21.929 18.1073 21.245 18.766C20.447 19.5387 20.048 20.514 20.048 21.692C20.048 22.8447 20.4154 23.7757 21.15 24.485C21.8594 25.1943 22.7714 25.549 23.886 25.549C24.9374 25.549 25.9064 25.112 26.793 24.238Z" fill="#111111"/>
</svg>
