<svg width="106" height="32" viewBox="0 0 106 32" fill="none" xmlns="http://www.w3.org/2000/svg">
<g clip-path="url(#clip0_2349_8944)">
<path d="M14.5309 10.936C13.7077 9.9624 12.377 9.4472 10.7458 9.4472C9.28752 9.42689 7.87107 9.93522 6.75783 10.8784H6.70828L7.63935 4.412L7.31008 4H3.73445L3.32286 4.3632L0.504883 23.9824L0.842945 24.3744H4.42656L4.83815 24.0152L5.86033 16.7832C6.20159 14.3952 7.3884 13.1872 9.3904 13.1872C9.65286 13.1632 9.91739 13.1973 10.1652 13.2872C10.413 13.3771 10.638 13.5205 10.8242 13.7072C11.1702 14.1192 11.2813 14.7376 11.1574 15.5912L9.95463 23.9744L10.2927 24.3664H13.8595L14.2719 24.0032L15.5075 15.344C15.7792 13.5168 15.4379 11.9872 14.5317 10.936H14.5309ZM29.9666 11.4224C28.8501 10.128 27.1367 9.4472 25.0236 9.4472C20.5904 9.4472 17.3033 12.4248 16.6399 17.0304C16.3067 19.364 16.7518 21.3232 17.9339 22.688C19.0543 23.9784 20.763 24.6632 22.8769 24.6632C27.3053 24.6632 30.5972 21.6856 31.2605 17.076C31.6146 14.7416 31.1534 12.788 29.9666 11.4224ZM20.9564 17.076C21.3153 14.572 22.6044 13.196 24.5281 13.196C24.8755 13.1721 25.224 13.2259 25.5481 13.3535C25.8723 13.481 26.164 13.6792 26.4022 13.9336C26.9584 14.5768 27.1478 15.6488 26.9504 17.0296C26.5916 19.5336 25.3025 20.9144 23.3748 20.9144C23.0272 20.938 22.6788 20.8841 22.3545 20.7565C22.0303 20.629 21.7384 20.431 21.4999 20.1768C20.9444 19.5336 20.755 18.4608 20.9564 17.076ZM38.5365 4H34.9688L34.5532 4.3632L31.7392 23.9824L32.0773 24.3744H35.6401L36.0557 24.0112L38.8609 4.4616L38.8697 4.392L38.5365 4ZM52.6471 9.732H49.9402L49.5694 10.0576L44.7374 19.768H44.6719L42.6611 10.144L42.3359 9.732H39.6298L39.2182 10.0944L38.8058 13.0512L41.7844 24.2296L41.7508 24.4608C41.3848 25.232 41.1171 25.5 39.7329 25.5H38.2415L37.7924 25.8544L37.3808 28.848L37.7181 29.24H39.2222C43.4523 29.24 44.8326 27.3056 46.3151 24.572L52.544 13.1128L52.9844 10.1272L52.6471 9.732ZM66.2144 10.936C65.3904 9.9624 64.0637 9.4472 62.4326 9.4472C60.9741 9.42609 59.5574 9.93452 58.4445 10.8784H58.387L59.3181 4.412L58.9808 4H55.4132L55.0008 4.3632L52.1876 23.9824L52.5257 24.3744H56.0885L56.5009 24.0152L57.539 16.7832C57.8803 14.3952 59.0671 13.1872 61.0691 13.1872C61.3328 13.1643 61.5983 13.1997 61.8467 13.291C62.0952 13.3822 62.3206 13.527 62.5069 13.7152C62.8481 14.1272 62.964 14.7456 62.8401 15.5992L61.6373 23.9824L61.9754 24.3744H65.5422L65.9546 24.0112L67.1902 15.352C67.4499 13.5168 67.1159 11.9872 66.2144 10.936ZM81.0467 11.3112C79.9918 10.0744 78.3894 9.4472 76.4114 9.4472C72.1564 9.4472 68.9972 12.4248 68.3179 17.0304C67.9838 19.348 68.4497 21.368 69.623 22.7248C70.7195 23.9904 72.4282 24.6632 74.5668 24.6632C77.1866 24.6632 80.3339 23.504 81.3472 20.2552L81.372 20.1728L81.026 19.76H77.4623L77.0875 20.0816L77.0587 20.1144C76.7542 20.5976 75.967 20.9064 75.0607 20.9064C74.7063 20.9333 74.3502 20.8819 74.0178 20.7558C73.6854 20.6298 73.3847 20.4321 73.137 20.1768C72.8199 19.8073 72.6538 19.3316 72.6719 18.8448L72.9109 18.6344H81.7876L82.2 18.2712L82.3726 17.0672C82.6939 14.7208 82.2407 12.684 81.0467 11.3112ZM78.0186 15.2576L77.7836 15.4672H73.336L73.1834 15.2904C73.3284 14.6785 73.6803 14.1356 74.1794 13.7537C74.6786 13.3719 75.2943 13.1745 75.9223 13.1952C76.2262 13.1711 76.5317 13.2149 76.8167 13.3234C77.1017 13.4318 77.359 13.6023 77.5702 13.8224C77.8915 14.2296 78.0521 14.7392 78.0234 15.2576H78.0186ZM89.5934 4H86.0306L85.6142 4.3632L82.801 23.9824L83.1343 24.3744H86.7019L87.1175 24.0112L89.9235 4.4616L89.9315 4.392L89.5934 4ZM105.662 4H102.094L101.683 4.3632L100.744 10.8784H100.67C100.439 10.5808 99.4092 9.4464 97.0771 9.4464C93.3496 9.4464 90.1816 12.6344 89.551 17.0304C89.2098 19.4136 89.6917 21.492 90.9025 22.8944C91.4061 23.4646 92.0277 23.9181 92.7242 24.2234C93.4206 24.5287 94.1751 24.6785 94.9352 24.6624C96.3996 24.7091 97.8268 24.1962 98.9273 23.228H99.0216L99.1702 24.0032L99.4875 24.3744H102.783L103.195 24.0112L106 4.4616V4.396L105.662 4ZM99.8623 17.0304C99.6066 18.8032 98.7826 20.9064 96.2867 20.9064C95.9363 20.9332 95.5843 20.882 95.256 20.7566C94.9277 20.6311 94.6312 20.4345 94.3878 20.1808C93.8355 19.5408 93.6581 18.4944 93.8643 17.0672C94.1201 15.2984 94.9432 13.1872 97.436 13.1872C97.7863 13.1605 98.1383 13.2117 98.4666 13.3371C98.7949 13.4626 99.0914 13.6592 99.3349 13.9128C99.8911 14.5608 100.068 15.608 99.8623 17.0304Z" fill="white" fill-opacity="0.7"/>
</g>
<defs>
<clipPath id="clip0_2349_8944">
<rect width="105.495" height="32" fill="white" transform="translate(0.504883)"/>
</clipPath>
</defs>
</svg>
