<svg width="44" height="44" viewBox="0 0 44 44" fill="none" xmlns="http://www.w3.org/2000/svg">
<rect width="44" height="44" rx="22" fill="#009C68"/>
<path fill-rule="evenodd" clip-rule="evenodd" d="M22.0001 25.9461C20.6643 25.0653 19.8604 23.5723 19.8604 21.9722C19.8604 20.3721 20.6643 18.8791 22.0001 17.9983C23.336 18.8791 24.1399 20.3721 24.1399 21.9722C24.1399 23.5723 23.336 25.0653 22.0001 25.9461Z" stroke="white" stroke-width="1.5" stroke-linecap="round" stroke-linejoin="round"/>
<path d="M24.0139 20.9399C25.0576 20.3576 26.2662 20.1416 27.447 20.3263C27.7638 21.8618 27.3014 23.4547 26.2116 24.5819C25.1218 25.7091 23.5454 26.2249 22.0001 25.9601C20.4548 26.2249 18.8784 25.7091 17.7886 24.5819C16.6988 23.4547 16.2364 21.8618 16.5533 20.3263C17.734 20.1416 18.9426 20.3576 19.9863 20.9399" stroke="white" stroke-width="1.5" stroke-linecap="round" stroke-linejoin="round"/>
<circle cx="22.0001" cy="22" r="9.00375" stroke="white" stroke-width="1.5" stroke-linecap="round" stroke-linejoin="round"/>
</svg>
