<svg width="165" height="32" viewBox="0 0 165 32" fill="none" xmlns="http://www.w3.org/2000/svg">
<path d="M0.780728 25.9941C0.70607 26.0049 0.629859 25.9988 0.558311 25.9788C0.486763 25.9588 0.421435 25.9234 0.366997 25.8757C0.312558 25.828 0.272118 25.7711 0.248787 25.7065C0.2239 25.6419 0.217679 25.5742 0.227011 25.508V6.48875C0.216124 6.4226 0.223901 6.35645 0.247232 6.29337C0.270563 6.2303 0.311004 6.17338 0.363888 6.12569C0.416771 6.078 0.480539 6.04261 0.552087 6.02261C0.62208 6.00108 0.698292 5.99492 0.771395 6.00415H4.20103C4.27569 5.99492 4.35035 6.00108 4.42034 6.02261C4.49189 6.04415 4.55566 6.07954 4.60854 6.12569C4.66142 6.17184 4.70186 6.2303 4.72519 6.29337C4.74853 6.35645 4.7563 6.4226 4.74542 6.48875V22.3666C4.7423 22.3897 4.74542 22.4127 4.75319 22.4358C4.76253 22.4574 4.77653 22.4774 4.79519 22.4943C4.81385 22.5112 4.83718 22.5235 4.86207 22.5297C4.88696 22.5374 4.9134 22.5389 4.93984 22.5358H15.2272C15.3018 22.5266 15.3765 22.5327 15.4465 22.5543C15.5165 22.5758 15.5818 22.6112 15.6347 22.6574C15.6876 22.705 15.728 22.762 15.7514 22.825C15.7747 22.8881 15.7825 22.9543 15.7731 23.0204V25.5065C15.7825 25.5726 15.7762 25.6388 15.7514 25.7019C15.728 25.7649 15.6876 25.8218 15.6347 25.8695C15.5818 25.9157 15.518 25.9526 15.4465 25.9726C15.3749 25.9941 15.3003 26.0003 15.2272 25.9911H0.780728V25.9941Z" fill="white" fill-opacity="0.7"/>
<path d="M23.5953 25.9963C22.1542 26.0415 20.7382 25.5888 19.5636 24.7085C18.4469 23.8422 17.6411 22.601 17.2812 21.1903C17.0131 20.2197 16.8813 19.2118 16.8902 18.2008C16.8724 17.1479 17.0131 16.098 17.3078 15.0901C17.687 13.7152 18.4972 12.516 19.6051 11.6854C20.7886 10.8377 22.1957 10.4038 23.6264 10.4473C25.0217 10.41 26.3918 10.8439 27.5352 11.6854C28.6239 12.5144 29.4222 13.7012 29.8028 15.059C30.0946 16.056 30.2354 17.095 30.2205 18.1386C30.222 19.1372 30.1006 20.131 29.8591 21.0969C29.4963 22.5356 28.6875 23.8079 27.5619 24.7085C26.411 25.5888 25.0158 26.0415 23.5953 25.9963ZM23.5953 22.4501C24.838 22.4501 25.6556 21.7175 26.0452 20.2524C26.2111 19.5836 26.2851 18.8914 26.2688 18.2008C26.2822 17.4994 26.2081 16.7994 26.0452 16.1182C25.6541 14.7106 24.8188 14.0076 23.5405 14.0076C22.2623 14.0076 21.4373 14.7106 21.0641 16.1182C20.9026 16.7994 20.8286 17.4994 20.8404 18.2008C20.8286 18.8914 20.9041 19.582 21.0641 20.2524C21.4536 21.7175 22.2979 22.4501 23.5953 22.4501Z" fill="white" fill-opacity="0.7"/>
<path d="M41.3285 13.8677C41.3374 13.9354 41.3314 14.0031 41.3107 14.0676C41.29 14.1322 41.2559 14.1904 41.2114 14.2376C41.167 14.2848 41.1107 14.3211 41.05 14.3431C40.9892 14.3651 40.9255 14.3714 40.8618 14.362H38.3895C38.3673 14.3588 38.3436 14.3604 38.3228 14.3683C38.3006 14.3761 38.2814 14.3887 38.2651 14.4061C38.2488 14.4234 38.2369 14.4438 38.2295 14.4674C38.2221 14.4895 38.2206 14.5147 38.2236 14.5383V20.5622C38.2236 21.8026 38.745 22.4243 39.7894 22.4243H40.5582C40.6219 22.4149 40.6856 22.4212 40.7463 22.4432C40.807 22.4653 40.8618 22.5015 40.9078 22.5487C40.9522 22.5959 40.9878 22.6542 41.007 22.7187C41.0278 22.7832 41.0337 22.8509 41.0248 22.9186V25.4214C41.0292 25.489 41.0218 25.5567 40.9996 25.6213C40.9789 25.6858 40.9448 25.744 40.9004 25.7928C40.8559 25.8416 40.8026 25.881 40.7448 25.9078C40.6856 25.9345 40.6219 25.9471 40.5582 25.9455C39.8634 25.9817 39.3583 26.0006 39.0487 26.0006C37.5288 26.0006 36.3926 25.7299 35.6416 25.1868C34.8891 24.6438 34.5025 23.6348 34.4817 22.1615V14.5414C34.4847 14.5178 34.4832 14.4926 34.4758 14.4706C34.4684 14.4486 34.4565 14.4265 34.4402 14.4092C34.424 14.3919 34.4047 14.3793 34.3825 14.3714C34.3603 14.3636 34.338 14.362 34.3158 14.3651H32.9145C32.8508 14.3746 32.7871 14.3683 32.7263 14.3462C32.6656 14.3242 32.6108 14.288 32.5649 14.2408C32.519 14.1936 32.4849 14.1337 32.4656 14.0708C32.4449 14.0062 32.439 13.9386 32.4478 13.8709V11.5696C32.439 11.5019 32.4449 11.4342 32.4656 11.3697C32.4864 11.3051 32.5204 11.2469 32.5649 11.1997C32.6093 11.1525 32.6656 11.1163 32.7263 11.0942C32.7871 11.0722 32.8508 11.0659 32.9145 11.0753H34.3158C34.338 11.0785 34.3603 11.0769 34.3825 11.069C34.4032 11.0612 34.424 11.0486 34.4388 11.0328C34.4551 11.0155 34.4669 10.9951 34.4743 10.973C34.4817 10.951 34.4847 10.9258 34.4817 10.9022V7.61081C34.4728 7.54313 34.4788 7.47544 34.4995 7.4109C34.5202 7.34637 34.5543 7.28813 34.5987 7.24091C34.6447 7.19368 34.6995 7.15748 34.7602 7.13544C34.8209 7.11341 34.8846 7.10711 34.9483 7.11655H37.7525C37.8162 7.10711 37.8799 7.11341 37.9407 7.13544C38.0014 7.15748 38.0562 7.19368 38.1021 7.24091C38.148 7.28813 38.1821 7.34637 38.2014 7.4109C38.2221 7.47544 38.228 7.54313 38.2191 7.61081V10.9006C38.2162 10.9242 38.2191 10.9478 38.2265 10.9714C38.234 10.9935 38.2458 11.0139 38.2621 11.0313C38.2784 11.0486 38.2976 11.0612 38.3184 11.0675C38.3391 11.0753 38.3628 11.0769 38.385 11.0738H40.8559C40.9196 11.0643 40.9833 11.0706 41.0441 11.0926C41.1048 11.1147 41.1596 11.1509 41.2055 11.1981C41.25 11.2453 41.2855 11.3051 41.3048 11.3681C41.3255 11.4326 41.3314 11.5003 41.3225 11.568L41.3285 13.8677Z" fill="white" fill-opacity="0.7"/>
<path d="M52.3094 10.9562C52.2998 10.8878 52.3062 10.8178 52.3303 10.7509C52.3544 10.6856 52.3945 10.625 52.4475 10.5768C52.5004 10.5285 52.5662 10.4912 52.6369 10.4679C52.7091 10.4461 52.7845 10.4383 52.86 10.4492H56.3318C56.4073 10.4399 56.4827 10.4461 56.5549 10.4679C56.6272 10.4897 56.6914 10.527 56.7443 10.5768C56.7973 10.6265 56.8374 10.6856 56.8615 10.7509C56.8856 10.8163 56.8936 10.8863 56.8824 10.9562V25.285C56.892 25.3534 56.8856 25.4234 56.8615 25.4903C56.8374 25.5556 56.7973 25.6163 56.7443 25.6645C56.6914 25.7143 56.6256 25.75 56.5549 25.7734C56.4827 25.7951 56.4073 25.8029 56.3318 25.7936H52.86C52.7845 25.8029 52.7091 25.7967 52.6369 25.7734C52.5646 25.7516 52.5004 25.7143 52.4475 25.6645C52.3945 25.6147 52.3544 25.5556 52.3303 25.4903C52.3062 25.425 52.2982 25.355 52.3094 25.285V24.4794C52.3094 24.4001 52.2821 24.3534 52.2308 24.3441C52.1794 24.3347 52.128 24.3596 52.0831 24.4203C51.2404 25.4701 49.9114 25.9958 48.0944 25.9958C46.5985 26.0471 45.141 25.5541 44.0399 24.6225C42.9789 23.7095 42.4477 22.4249 42.4477 20.7732V10.9594C42.438 10.8909 42.4444 10.8209 42.4685 10.7541C42.4926 10.6887 42.5327 10.6281 42.5857 10.5799C42.6387 10.5317 42.7045 10.4943 42.7751 10.471C42.8457 10.4492 42.9228 10.4414 42.9982 10.4523H46.4395C46.515 10.443 46.5904 10.4492 46.6627 10.471C46.7349 10.4928 46.7991 10.5301 46.8521 10.5799C46.905 10.6296 46.9452 10.6887 46.9692 10.7541C46.9933 10.8194 47.0013 10.8894 46.9901 10.9594V19.7373C46.9532 20.4388 47.1972 21.1278 47.6755 21.6752C47.9146 21.9256 48.2132 22.1231 48.5487 22.2538C48.8825 22.3829 49.2453 22.4404 49.608 22.4233C50.2774 22.4466 50.9306 22.2273 51.4266 21.8121C51.9098 21.389 52.2195 20.8245 52.2998 20.2148L52.3094 10.9562Z" fill="white" fill-opacity="0.7"/>
<path d="M65.8481 25.9994C63.802 25.9994 62.1723 25.5919 60.9574 24.7783C59.7425 23.9633 59.1291 22.9133 59.1143 21.6269V21.4807C59.104 21.4122 59.1099 21.3438 59.1321 21.2785C59.1543 21.2131 59.1928 21.154 59.2417 21.1058C59.2921 21.0576 59.3529 21.0202 59.421 20.9985C59.4877 20.9767 59.5603 20.9705 59.6299 20.9813H62.6983C63.0405 20.9813 63.2138 21.0405 63.2138 21.1587V21.364C63.2242 21.5942 63.2968 21.8167 63.4242 22.0111C63.5516 22.2055 63.7309 22.3626 63.9413 22.4684C64.4998 22.792 65.1443 22.9506 65.7947 22.9257C66.377 22.9506 66.9563 22.8184 67.466 22.5431C67.6571 22.4482 67.8171 22.3051 67.9297 22.1293C68.0423 21.9535 68.1045 21.7498 68.106 21.5429C68.1045 21.3671 68.0482 21.1976 67.946 21.0529C67.8423 20.9082 67.6971 20.7978 67.5282 20.7356C66.9178 20.4696 66.2822 20.2611 65.6303 20.1134C64.9236 19.9516 64.2287 19.7432 63.5487 19.4912C62.4153 19.1521 61.3559 18.6123 60.4255 17.8999C59.6551 17.2777 59.2714 16.3739 59.2714 15.1886C59.2492 14.5167 59.3988 13.8478 59.707 13.2443C60.0151 12.6407 60.4714 12.1196 61.0359 11.7276C62.2108 10.8705 63.7502 10.4443 65.6555 10.4443C67.5993 10.4443 69.1683 10.8861 70.3624 11.7681C70.9284 12.1585 71.3862 12.6765 71.6988 13.2769C72.0114 13.8773 72.167 14.5431 72.1551 15.2151C72.1551 15.4484 71.9818 15.5666 71.6381 15.5666H68.6601C68.3164 15.5666 68.1445 15.5075 68.1445 15.3924V15.2151C68.1386 14.9926 68.0749 14.7764 67.9578 14.5851C67.8408 14.3938 67.6749 14.2351 67.4763 14.1247C66.9385 13.8058 66.3133 13.6518 65.6836 13.6829C65.1103 13.6611 64.5399 13.784 64.0287 14.0376C63.8376 14.1247 63.6761 14.2616 63.5635 14.4327C63.4494 14.6038 63.3887 14.8029 63.3872 15.0082C63.3857 15.2213 63.4672 15.4266 63.6154 15.5837C63.805 15.7766 64.0391 15.9213 64.2984 16.0099C64.6006 16.1282 64.9102 16.2262 65.2258 16.3055L66.457 16.6166C66.9637 16.7441 67.3993 16.8561 67.7623 16.9557C69.0024 17.2637 70.1684 17.8034 71.1966 18.5439C72.0277 19.1941 72.4426 20.1383 72.4396 21.3733C72.4648 22.0406 72.3137 22.7049 71.9996 23.2991C71.6855 23.8933 71.2203 24.4019 70.6484 24.7737C69.4468 25.5903 67.8467 25.9994 65.8481 25.9994Z" fill="white" fill-opacity="0.7"/>
<path d="M80.7057 25.9952C80.6405 26.0044 80.5738 25.9983 80.5102 25.9783C80.4481 25.9567 80.3905 25.9214 80.3436 25.8752C80.2966 25.8275 80.2617 25.7706 80.2405 25.7075C80.2208 25.6444 80.2148 25.5767 80.2239 25.5106V6.48912C80.2148 6.42297 80.2208 6.35528 80.2405 6.2922C80.2617 6.22912 80.2966 6.1722 80.3436 6.12451C80.3905 6.07681 80.4481 6.04143 80.5102 6.02143C80.5738 5.99989 80.6405 5.99528 80.7057 6.00451H83.7374C83.8495 5.99989 83.9616 6.02451 84.0616 6.07835C84.1601 6.13066 84.2434 6.21066 84.3025 6.30604L88.4114 12.9891C88.4872 13.1414 88.5629 13.1414 88.6357 12.9891L92.8022 6.30604C92.8612 6.20912 92.9461 6.13066 93.0461 6.07682C93.1461 6.02451 93.2582 5.99835 93.3703 6.00451H96.399C96.4656 5.99528 96.5323 6.00143 96.5944 6.02143C96.6581 6.04297 96.7141 6.07835 96.7611 6.12451C96.8081 6.1722 96.8429 6.22912 96.8641 6.2922C96.8853 6.35528 96.8914 6.42297 96.8808 6.48912V25.509C96.8914 25.5752 96.8853 25.6429 96.8641 25.706C96.8429 25.769 96.8081 25.826 96.7611 25.8737C96.7141 25.9213 96.6581 25.9567 96.5944 25.9767C96.5323 25.9983 96.4656 26.0029 96.399 25.9937H93.3703C93.3052 26.0029 93.2385 25.9967 93.1749 25.9767C93.1127 25.9552 93.0552 25.9198 93.0082 25.8737C92.9627 25.826 92.9264 25.769 92.9067 25.706C92.8855 25.6429 92.8794 25.5752 92.8885 25.509V13.1506C92.8885 13.0722 92.8643 13.0276 92.8173 13.006C92.7688 12.9845 92.7279 13.006 92.6885 13.0937L89.8265 17.8045C89.7674 17.9014 89.6841 17.9798 89.5841 18.0322C89.4856 18.0845 89.3735 18.1106 89.2614 18.106H87.8175C87.7039 18.1106 87.5917 18.086 87.4918 18.0322C87.3933 17.9798 87.3084 17.8998 87.2493 17.8045L84.4161 13.0937C84.3782 13.0152 84.3358 12.9876 84.2888 13.006C84.2404 13.0245 84.2192 13.0722 84.2192 13.1506V25.509C84.2282 25.5752 84.2222 25.6414 84.201 25.7044C84.1798 25.7675 84.1449 25.8244 84.0979 25.8721C84.051 25.9183 83.9949 25.9552 83.9328 25.9752C83.8692 25.9967 83.8025 26.0029 83.7374 25.9937L80.7057 25.9952Z" fill="white" fill-opacity="0.7"/>
<path d="M106.998 10.4443C108.906 10.4443 110.473 10.9234 111.698 11.883C112.931 12.8411 113.547 14.0388 113.547 15.465V25.2668C113.558 25.3353 113.552 25.4037 113.529 25.469C113.509 25.5344 113.472 25.5935 113.424 25.6417C113.375 25.6899 113.318 25.7272 113.252 25.749C113.187 25.7708 113.119 25.777 113.051 25.7661H109.921C109.854 25.7754 109.785 25.7692 109.721 25.749C109.656 25.7272 109.596 25.6915 109.549 25.6417C109.5 25.5935 109.465 25.5344 109.442 25.469C109.422 25.4037 109.416 25.3353 109.425 25.2668V24.5607C109.425 24.3834 109.355 24.3647 109.219 24.5016C108.325 25.5002 106.991 25.9994 105.213 25.9994C103.717 25.9994 102.511 25.6277 101.597 24.8858C100.683 24.1439 100.224 23.0505 100.219 21.6087C100.219 20.1015 100.745 18.9319 101.797 18.0982C102.849 17.2646 104.346 16.8524 106.291 16.8586H109.241C109.265 16.8617 109.288 16.8602 109.312 16.8524C109.334 16.8446 109.355 16.8322 109.373 16.8151C109.389 16.798 109.402 16.7762 109.41 16.7528C109.417 16.7295 109.42 16.7046 109.416 16.6813V16.0592C109.429 15.7776 109.382 15.4946 109.275 15.2333C109.168 14.972 109.007 14.7371 108.799 14.5458C108.309 14.1523 107.69 13.9594 107.065 14.003C105.857 14.003 105.118 14.3747 104.847 15.1197C104.807 15.241 104.729 15.3453 104.622 15.4152C104.515 15.4852 104.388 15.5148 104.262 15.5023L101.024 15.0902C100.892 15.0808 100.766 15.0357 100.658 14.9595C100.615 14.9269 100.584 14.8849 100.566 14.8351C100.548 14.7853 100.544 14.7324 100.556 14.6811C100.711 13.4415 101.384 12.4274 102.57 11.6388C103.757 10.8503 105.234 10.4521 106.998 10.4443ZM106.416 22.9276C107.182 22.9416 107.93 22.6959 108.537 22.2261C108.813 22.0302 109.036 21.7704 109.189 21.4687C109.343 21.1669 109.42 20.831 109.416 20.4935V19.4638C109.419 19.4405 109.417 19.4156 109.408 19.3923C109.401 19.369 109.387 19.3487 109.371 19.3316C109.353 19.3145 109.334 19.3021 109.31 19.2943C109.288 19.2865 109.265 19.285 109.241 19.2881H107.167C106.443 19.2476 105.724 19.4218 105.096 19.7873C104.857 19.9335 104.66 20.1404 104.526 20.3877C104.392 20.635 104.327 20.9134 104.336 21.1949C104.327 21.4329 104.375 21.6678 104.474 21.884C104.572 22.1001 104.72 22.2883 104.905 22.4361C105.339 22.7674 105.874 22.9369 106.419 22.9136L106.416 22.9276Z" fill="white" fill-opacity="0.7"/>
<path d="M122.697 10.4462C123.272 10.4275 123.842 10.5504 124.351 10.8055C124.471 10.8599 124.566 10.9532 124.618 11.0698C124.671 11.1865 124.676 11.3156 124.633 11.4353L124.037 14.5661C123.998 14.846 123.788 14.9502 123.412 14.8818C122.878 14.7418 122.318 14.7278 121.778 14.8414C121.063 14.8849 120.387 15.1649 119.865 15.6315C119.603 15.871 119.397 16.1618 119.263 16.4837C119.129 16.8057 119.067 17.151 119.084 17.4962V25.4872C119.094 25.5556 119.087 25.6272 119.063 25.6925C119.04 25.7578 119 25.8185 118.948 25.8682C118.897 25.918 118.834 25.9553 118.764 25.9756C118.694 25.9973 118.62 26.0036 118.547 25.9942H115.2C115.129 26.0051 115.054 25.9989 114.984 25.9756C114.915 25.9538 114.852 25.9165 114.8 25.8667C114.749 25.8169 114.709 25.7578 114.687 25.6909C114.664 25.6256 114.657 25.5541 114.667 25.4856V11.1616C114.657 11.0932 114.664 11.0216 114.687 10.9563C114.709 10.8894 114.749 10.8303 114.8 10.7806C114.852 10.7308 114.915 10.6935 114.984 10.6717C115.054 10.6499 115.129 10.6437 115.2 10.653H118.554C118.627 10.6437 118.7 10.6499 118.77 10.6717C118.84 10.6935 118.904 10.7308 118.955 10.779C119.007 10.8288 119.047 10.8879 119.07 10.9548C119.094 11.0201 119.1 11.0916 119.09 11.1601V12.0854C119.09 12.2845 119.163 12.3156 119.308 12.1741C119.67 11.6329 120.17 11.1896 120.763 10.8863C121.357 10.5846 122.023 10.4322 122.697 10.4462Z" fill="white" fill-opacity="0.7"/>
<path d="M126.272 25.987C126.205 25.9962 126.137 25.99 126.073 25.9685C126.008 25.947 125.95 25.9116 125.903 25.8654C125.855 25.8177 125.818 25.7608 125.798 25.6977C125.775 25.6347 125.769 25.5685 125.778 25.5024V6.48876C125.769 6.42261 125.775 6.35646 125.798 6.29338C125.818 6.2303 125.855 6.17338 125.903 6.12569C125.95 6.078 126.008 6.04261 126.073 6.02262C126.137 6.00108 126.205 5.99492 126.272 6.00415H129.38C129.448 5.99492 129.516 6.00108 129.58 6.02262C129.644 6.04415 129.701 6.07954 129.75 6.12569C129.798 6.17338 129.833 6.2303 129.855 6.29338C129.876 6.35646 129.884 6.42261 129.875 6.48876V15.9194C129.875 15.9948 129.898 16.0363 129.944 16.0456C129.99 16.0548 130.036 16.0456 130.076 15.9733L133.94 11.6072C134.017 11.521 134.11 11.4518 134.215 11.4025C134.322 11.3533 134.436 11.3256 134.552 11.321H138.066C138.146 11.3102 138.227 11.3195 138.301 11.3502C138.375 11.381 138.441 11.4302 138.49 11.4933C138.556 11.6087 138.522 11.7502 138.387 11.921L134.813 16.3179C134.784 16.3486 134.765 16.3871 134.761 16.4286C134.756 16.4702 134.764 16.5117 134.786 16.5471L139.053 25.4239C139.088 25.4854 139.107 25.5547 139.107 25.6239C139.107 25.6931 139.088 25.7639 139.053 25.8239C139.01 25.8854 138.95 25.9331 138.881 25.9639C138.813 25.9947 138.735 26.0054 138.66 25.9962H135.38C135.257 25.9993 135.134 25.9654 135.03 25.8993C134.927 25.8331 134.845 25.7377 134.798 25.6254L131.98 19.0871C131.921 18.9732 131.845 18.964 131.75 19.0594L129.947 21.3132C129.898 21.3686 129.867 21.4378 129.861 21.5116V25.5008C129.87 25.567 129.864 25.6331 129.844 25.6962C129.821 25.7593 129.786 25.8162 129.737 25.8639C129.69 25.9116 129.632 25.947 129.568 25.967C129.503 25.9885 129.435 25.9947 129.368 25.9854H126.272V25.987Z" fill="white" fill-opacity="0.7"/>
<path d="M148.655 22.5132C149.9 22.4557 150.851 22.0062 151.508 21.1647C151.735 20.8925 151.959 20.8738 152.185 21.1056L153.796 22.717C153.843 22.759 153.883 22.8119 153.913 22.8694C153.942 22.9285 153.96 22.9923 153.965 23.0576C153.971 23.123 153.963 23.1883 153.944 23.2521C153.925 23.3143 153.894 23.3718 153.852 23.4232C153.212 24.2398 152.394 24.8868 151.467 25.313C150.467 25.7765 149.384 26.0114 148.289 25.9989C146.556 25.9989 145.119 25.5401 143.981 24.6224C142.818 23.672 142.003 22.339 141.67 20.8443C141.44 19.9561 141.325 19.04 141.331 18.1207C141.312 17.1548 141.417 16.1889 141.643 15.251C141.989 13.8511 142.792 12.6192 143.915 11.7637C145.089 10.874 146.516 10.4105 147.969 10.4463C149.817 10.4463 151.28 11.0124 152.362 12.1463C153.442 13.2802 154.151 14.8714 154.491 16.9199C154.565 17.5623 154.621 18.2778 154.657 19.0555C154.667 19.1224 154.661 19.1924 154.64 19.2577C154.62 19.3231 154.584 19.3822 154.538 19.4304C154.491 19.4786 154.434 19.5144 154.371 19.5362C154.308 19.5579 154.242 19.5642 154.177 19.5533H145.492C145.469 19.5502 145.445 19.5517 145.423 19.5595C145.4 19.5673 145.381 19.5797 145.365 19.5968C145.347 19.6139 145.335 19.6357 145.328 19.6575C145.32 19.6808 145.319 19.7057 145.322 19.729C145.356 20.0386 145.423 20.3434 145.519 20.6374C145.935 21.888 146.98 22.5132 148.655 22.5132ZM147.931 14.0191C146.707 14.0191 145.925 14.5946 145.584 15.7471C145.492 16.1173 145.436 16.3662 145.418 16.4798C145.4 16.5933 145.445 16.6524 145.557 16.6524H150.357C150.471 16.6524 150.519 16.5933 150.501 16.4798C150.489 16.2698 150.452 16.0613 150.387 15.8607C150.003 14.6335 149.186 14.0191 147.931 14.0191Z" fill="white" fill-opacity="0.7"/>
<path d="M164.647 13.868C164.656 13.9356 164.65 14.0033 164.629 14.0679C164.609 14.1324 164.575 14.1906 164.529 14.2379C164.484 14.2851 164.429 14.3213 164.369 14.3433C164.308 14.3653 164.244 14.3716 164.18 14.3622H161.709C161.687 14.3591 161.665 14.3606 161.643 14.3685C161.62 14.3764 161.601 14.389 161.585 14.4063C161.569 14.4236 161.557 14.4441 161.551 14.4677C161.543 14.4897 161.542 14.5149 161.545 14.5385V20.5623C161.545 21.8027 162.066 22.4244 163.109 22.4244H163.877C163.94 22.415 164.004 22.4213 164.065 22.4417C164.126 22.4638 164.182 22.5 164.226 22.5472C164.272 22.596 164.306 22.6542 164.326 22.7188C164.346 22.7833 164.352 22.851 164.343 22.9187V25.4214C164.348 25.4891 164.34 25.5567 164.318 25.6213C164.297 25.6858 164.263 25.7441 164.22 25.7928C164.176 25.8416 164.123 25.881 164.063 25.9062C164.004 25.9329 163.94 25.944 163.877 25.9424C163.182 25.9817 162.68 26.0006 162.367 26.0006C160.85 26.0006 159.715 25.7299 158.967 25.1868C158.217 24.6438 157.831 23.6348 157.809 22.1615V14.5416C157.812 14.518 157.81 14.4928 157.803 14.4708C157.795 14.4488 157.783 14.4267 157.767 14.4094C157.751 14.3921 157.732 14.3795 157.709 14.3716C157.689 14.3638 157.665 14.3622 157.643 14.3653H156.244C156.18 14.3748 156.115 14.3685 156.055 14.348C155.994 14.3276 155.939 14.2898 155.895 14.2426C155.849 14.1954 155.815 14.1355 155.794 14.071C155.775 14.0065 155.769 13.9388 155.777 13.8711V11.5699C155.769 11.5022 155.775 11.4345 155.794 11.37C155.815 11.3054 155.849 11.2472 155.895 11.1984C155.939 11.1496 155.994 11.1134 156.055 11.0929C156.115 11.0709 156.18 11.0662 156.244 11.0756H157.643C157.665 11.0788 157.689 11.0772 157.709 11.0693C157.73 11.0614 157.749 11.0489 157.766 11.0331C157.782 11.0174 157.794 10.9969 157.801 10.9733C157.809 10.9513 157.812 10.9261 157.809 10.904V7.61116C157.798 7.54348 157.804 7.4758 157.825 7.41126C157.846 7.34672 157.88 7.28849 157.924 7.23969C157.97 7.1909 158.025 7.15627 158.086 7.13423C158.146 7.11219 158.212 7.10747 158.274 7.11692H161.072C161.136 7.10747 161.2 7.11377 161.26 7.1358C161.321 7.15784 161.376 7.19404 161.422 7.24126C161.466 7.28849 161.5 7.34672 161.521 7.41126C161.542 7.4758 161.548 7.54348 161.539 7.61116V10.9009C161.536 10.9245 161.537 10.9481 161.545 10.9717C161.552 10.9953 161.566 11.0142 161.58 11.0315C161.597 11.0489 161.616 11.0614 161.638 11.0677C161.659 11.0756 161.681 11.0772 161.703 11.074H164.192C164.256 11.0646 164.32 11.0709 164.38 11.0929C164.441 11.115 164.496 11.1512 164.54 11.1984C164.586 11.2456 164.62 11.3039 164.641 11.3684C164.66 11.4329 164.666 11.5006 164.659 11.5683L164.647 13.868Z" fill="white" fill-opacity="0.7"/>
</svg>
