<svg width="44" height="44" viewBox="0 0 44 44" fill="none" xmlns="http://www.w3.org/2000/svg">
<rect width="44" height="44" rx="22" fill="#DBFF00"/>
<path fill-rule="evenodd" clip-rule="evenodd" d="M20.1978 10C14.4438 10 10 15.3722 10 21.9991C10 28.6279 14.4438 34 20.1978 34H27.0989C30.906 34 34 30.4133 34 26V20.293C34 19.0266 33.1144 18 32.022 18H27.0989V12.293C27.0989 11.0266 26.2133 10 25.1209 10H20.1978ZM27.0989 18H22.1758C21.0834 18 20.1978 19.0266 20.1978 20.293V23.707C20.1978 24.9734 21.0834 26 22.1758 26H25.1209C26.2133 26 27.0989 24.9734 27.0989 23.707V18Z" fill="#191B20"/>
<path d="M30.607 17.8667C28.7332 17.8667 27.2139 16.1054 27.2139 13.9333C27.2139 11.7612 28.7332 10 30.607 10C32.4807 10 34 11.7612 34 13.9333C34 16.1054 32.4807 17.8667 30.607 17.8667Z" fill="#191B20"/>
</svg>
