<svg width="44" height="44" viewBox="0 0 44 44" fill="none" xmlns="http://www.w3.org/2000/svg">
<rect width="44" height="44" rx="22" fill="#13AA6A"/>
<mask id="mask0_270_45" style="mask-type:luminance" maskUnits="userSpaceOnUse" x="26" y="12" width="5" height="5">
<path fill-rule="evenodd" clip-rule="evenodd" d="M28.1834 13.0857L29.8058 14.5357C30.1045 14.8027 30.1265 15.2613 29.8546 15.5547L29.4097 16.0349C28.6874 15.0559 27.7679 14.2276 26.7092 13.6053L27.1461 13.1338C27.4178 12.8404 27.8847 12.8187 28.1834 13.0857Z" fill="white"/>
</mask>
<g mask="url(#mask0_270_45)">
<path fill-rule="evenodd" clip-rule="evenodd" d="M22.0508 20.6104H34.7031V8.3233H22.0508V20.6104Z" fill="white"/>
</g>
<mask id="mask1_270_45" style="mask-type:luminance" maskUnits="userSpaceOnUse" x="13" y="12" width="18" height="18">
<path fill-rule="evenodd" clip-rule="evenodd" d="M22.0001 12.9413C26.6858 12.9413 30.4844 16.6723 30.4844 21.2747C30.4844 23.1295 29.867 24.8425 28.8237 26.227L26.2906 21.9176C26.323 21.708 26.3398 21.4933 26.3398 21.2747C26.3398 18.9205 24.3969 17.0122 22.0001 17.0122C19.6033 17.0122 17.6604 18.9205 17.6604 21.2747C17.6604 23.6289 19.6033 25.5373 22.0001 25.5373C22.4774 25.5373 22.9365 25.4613 23.366 25.3216L25.4608 28.8852C24.4041 29.3497 23.2328 29.6081 22.0001 29.6081C17.3144 29.6081 13.5159 25.8771 13.5159 21.2747C13.5159 16.6723 17.3144 12.9413 22.0001 12.9413Z" fill="white"/>
</mask>
<g mask="url(#mask1_270_45)">
<path fill-rule="evenodd" clip-rule="evenodd" d="M8.85767 34.1835H35.1427V8.36578H8.85767V34.1835Z" fill="white"/>
</g>
<mask id="mask2_270_45" style="mask-type:luminance" maskUnits="userSpaceOnUse" x="21" y="25" width="5" height="5">
<path fill-rule="evenodd" clip-rule="evenodd" d="M23.3654 25.3214L25.4602 28.8851C24.9782 29.0969 24.4725 29.2657 23.9479 29.3869L21.678 25.5255C21.7841 25.5331 21.8913 25.5371 21.9995 25.5371C22.4767 25.5371 22.9358 25.4611 23.3654 25.3214Z" fill="white"/>
</mask>
<g mask="url(#mask2_270_45)">
<path fill-rule="evenodd" clip-rule="evenodd" d="M17.02 33.9623H30.1188V20.7459H17.02V33.9623Z" fill="black"/>
</g>
<mask id="mask3_270_45" style="mask-type:luminance" maskUnits="userSpaceOnUse" x="21" y="22" width="8" height="10">
<path fill-rule="evenodd" clip-rule="evenodd" d="M25.1057 22.7633L28.9345 29.2769L25.7176 31.1012L21.8889 24.5875L25.1057 22.7633Z" fill="white"/>
</mask>
<g mask="url(#mask3_270_45)">
<path fill-rule="evenodd" clip-rule="evenodd" d="M17.2302 35.6767H33.5923V18.1879H17.2302V35.6767Z" fill="white"/>
</g>
</svg>
