<svg width="100" height="32" viewBox="0 0 100 32" fill="none" xmlns="http://www.w3.org/2000/svg">
<mask id="mask0_2349_8958" style="mask-type:luminance" maskUnits="userSpaceOnUse" x="23" y="0" width="6" height="6">
<path fill-rule="evenodd" clip-rule="evenodd" d="M25.6432 0.328643L28.4445 2.87766C28.9604 3.34709 28.9983 4.15322 28.5288 4.66898L27.7607 5.51324C26.5135 3.79206 24.9256 2.33601 23.0977 1.24208L23.8519 0.413101C24.3212 -0.102655 25.1274 -0.140782 25.6432 0.328643Z" fill="white"/>
</mask>
<g mask="url(#mask0_2349_8958)">
<path fill-rule="evenodd" clip-rule="evenodd" d="M15.0537 13.5565H36.9009V-8.04395H15.0537V13.5565Z" fill="white" fill-opacity="0.7"/>
</g>
<mask id="mask1_2349_8958" style="mask-type:luminance" maskUnits="userSpaceOnUse" x="0" y="0" width="30" height="30">
<path fill-rule="evenodd" clip-rule="evenodd" d="M14.9684 0.0751953C23.0594 0.0751953 29.6184 6.63428 29.6184 14.7252C29.6184 17.9859 28.5524 20.9973 26.7509 23.4313L22.377 15.8555C22.4328 15.4869 22.4619 15.1095 22.4619 14.7252C22.4619 10.5866 19.107 7.23176 14.9684 7.23176C10.8298 7.23176 7.47489 10.5866 7.47489 14.7252C7.47489 18.8638 10.8298 22.2188 14.9684 22.2188C15.7925 22.2188 16.5853 22.0853 17.327 21.8396L20.9441 28.1045C19.1194 28.9209 17.097 29.3752 14.9684 29.3752C6.87738 29.3752 0.318359 22.8163 0.318359 14.7252C0.318359 6.63428 6.87738 0.0751953 14.9684 0.0751953Z" fill="white"/>
</mask>
<g mask="url(#mask1_2349_8958)">
<path fill-rule="evenodd" clip-rule="evenodd" d="M-7.7251 37.4185H37.6622V-7.96875H-7.7251V37.4185Z" fill="white" fill-opacity="0.7"/>
</g>
<mask id="mask2_2349_8958" style="mask-type:luminance" maskUnits="userSpaceOnUse" x="14" y="21" width="7" height="8">
<path fill-rule="evenodd" clip-rule="evenodd" d="M17.3267 21.8379L20.9439 28.1027C20.1117 28.4752 19.2384 28.772 18.3325 28.985L14.4131 22.1966C14.5963 22.21 14.7815 22.2171 14.9682 22.2171C15.7923 22.2171 16.5851 22.0835 17.3267 21.8379Z" fill="white"/>
</mask>
<g mask="url(#mask2_2349_8958)">
<path fill-rule="evenodd" clip-rule="evenodd" d="M6.37012 37.0282H28.9881V13.7939H6.37012V37.0282Z" fill="white" fill-opacity="0.7"/>
</g>
<mask id="mask3_2349_8958" style="mask-type:luminance" maskUnits="userSpaceOnUse" x="14" y="17" width="13" height="16">
<path fill-rule="evenodd" clip-rule="evenodd" d="M20.3295 17.3428L26.9407 28.7937L21.3861 32.0007L14.7749 20.5498L20.3295 17.3428Z" fill="white"/>
</mask>
<g mask="url(#mask3_2349_8958)">
<path fill-rule="evenodd" clip-rule="evenodd" d="M6.73096 40.0439H34.984V9.29883H6.73096V40.0439Z" fill="white" fill-opacity="0.7"/>
</g>
<mask id="mask4_2349_8958" style="mask-type:luminance" maskUnits="userSpaceOnUse" x="32" y="0" width="68" height="25">
<path fill-rule="evenodd" clip-rule="evenodd" d="M40.7166 7.07406C43.1201 7.07406 45.1555 7.90239 46.8228 9.55873C48.4901 11.2151 49.3237 13.2453 49.3237 15.6487C49.3237 18.0523 48.4901 20.0823 46.8228 21.7387C45.1555 23.3954 43.1201 24.2234 40.7166 24.2234C38.313 24.2234 36.2777 23.3954 34.6103 21.7387C32.9429 20.0823 32.1094 18.0523 32.1094 15.6487C32.1094 13.2453 32.9429 11.2151 34.6103 9.55873C36.2777 7.90239 38.313 7.07406 40.7166 7.07406ZM78.7505 7.07406C81.1107 7.07406 83.0759 7.89129 84.6456 9.52623C86.2155 11.161 87.0003 13.202 87.0003 15.6487C87.0003 16.3416 86.9355 16.9912 86.8057 17.5977H75.275C75.8381 19.1133 77.1372 19.8711 79.1727 19.8711C80.4936 19.8711 81.5329 19.4598 82.2907 18.6368L86.1884 20.8779C84.5861 23.1084 82.2258 24.2234 79.1079 24.2234C76.3795 24.2234 74.1977 23.4114 72.563 21.7874C70.9282 20.1636 70.1109 18.1171 70.1109 15.6487C70.1109 13.202 70.9174 11.161 72.5307 9.52623C74.1437 7.89129 76.2171 7.07406 78.7505 7.07406ZM99.5049 7.20357V12.7252C98.3138 12.5302 97.204 12.7307 96.1755 13.326C95.147 13.9218 94.6327 14.9555 94.6327 16.428V23.7684H89.7608V7.52837H94.6327V10.4191C94.936 9.37985 95.5476 8.58401 96.4677 8.0319C97.3882 7.47979 98.4005 7.20357 99.5049 7.20357ZM70.4357 0.57788V5.25476C68.4219 5.0815 67.415 5.83937 67.415 7.52837H70.4357V12.2056H67.415V23.7684H62.5431V12.2056H57.5086V23.7684H52.6366V12.2056H50.4604V7.52837H52.6366C52.6366 5.18993 53.2971 3.40875 54.6179 2.18548C55.9386 0.962043 57.9093 0.426016 60.5293 0.57788V5.25476C58.5155 5.0815 57.5086 5.83937 57.5086 7.52837H62.5431C62.5431 5.18993 63.2036 3.40875 64.5242 2.18548C65.845 0.962043 67.8157 0.426016 70.4357 0.57788ZM40.7165 11.8159C39.6555 11.8159 38.7677 12.1732 38.0531 12.8878C37.3387 13.6023 36.9813 14.5226 36.9813 15.6486C36.9813 16.7745 37.3387 17.6949 38.0531 18.4096C38.7677 19.1239 39.6555 19.4812 40.7165 19.4812C41.7776 19.4812 42.6652 19.1239 43.3798 18.4096C44.0945 17.6949 44.4517 16.7745 44.4517 15.6486C44.4517 14.5226 44.0945 13.6023 43.3798 12.8878C42.6652 12.1732 41.7776 11.8159 40.7165 11.8159ZM78.7191 11.3937C76.8352 11.3937 75.655 12.249 75.1787 13.9597H82.1618C81.6856 12.249 80.5379 11.3937 78.7191 11.3937Z" fill="white"/>
</mask>
<g mask="url(#mask4_2349_8958)">
<path fill-rule="evenodd" clip-rule="evenodd" d="M24.0659 32.2664H107.55V-7.49121H24.0659V32.2664Z" fill="white" fill-opacity="0.7"/>
</g>
</svg>
