<svg width="44" height="44" viewBox="0 0 44 44" fill="none" xmlns="http://www.w3.org/2000/svg">
<rect width="44" height="44" rx="22" fill="#EBEEF3"/>
<path d="M26.0109 16.296L24.6999 18.424C24.0285 17.816 23.3192 17.512 22.5719 17.512C22.0145 17.512 21.6029 17.6577 21.3369 17.949C21.1215 18.1643 21.0139 18.4303 21.0139 18.747C21.0139 19.0383 21.1089 19.2727 21.2989 19.45C21.3622 19.5007 21.4255 19.5513 21.4889 19.602C21.5522 19.64 21.6409 19.6843 21.7549 19.735C21.8689 19.7857 21.9639 19.83 22.0399 19.868C22.1159 19.8933 22.2489 19.944 22.4389 20.02C22.6289 20.0833 22.7809 20.134 22.8949 20.172L23.8449 20.533C24.6429 20.837 25.2192 21.16 25.5739 21.502C26.1945 22.0847 26.5049 22.87 26.5049 23.858C26.5049 25.1753 26.1312 26.2203 25.3839 26.993C24.5605 27.8543 23.3635 28.285 21.7929 28.285C20.8302 28.285 19.9942 28.1077 19.2849 27.753C18.6515 27.4363 18.0309 26.974 17.4229 26.366L18.9429 24.276C19.3735 24.7067 19.7662 25.0297 20.1209 25.245C20.6149 25.549 21.1469 25.701 21.7169 25.701C22.2615 25.701 22.7049 25.5553 23.0469 25.264C23.3509 25.0107 23.5029 24.6687 23.5029 24.238C23.5029 23.8833 23.3572 23.5793 23.0659 23.326C22.8379 23.136 22.3439 22.9017 21.5839 22.623L20.5389 22.262C19.7155 21.9707 19.1265 21.635 18.7719 21.255C18.2652 20.723 18.0119 19.9883 18.0119 19.051C18.0119 17.8983 18.3792 16.9483 19.1139 16.201C19.8739 15.4283 20.9189 15.042 22.2489 15.042C23.6295 15.042 24.8835 15.46 26.0109 16.296Z" fill="#111111"/>
</svg>
