<svg width="193" height="36" viewBox="0 0 193 36" fill="none" xmlns="http://www.w3.org/2000/svg">
<g clip-path="url(#clip0_2294_1872)">
<path d="M5.61701 18.5C5.61701 8.28273 11.4941 0 18.7438 0H180.228C187.282 0 193 8.05888 193 18C193 27.9411 187.282 36 180.228 36H14.6906H0L1.45169 33.7386C4.13255 29.5624 5.61701 24.1316 5.61701 18.5Z" fill="#E5F3FF"/>
<path d="M25.875 18.185H33.36V16.55H25.875V18.185ZM32.22 12.5V23H33.99V12.5H32.22ZM25.17 12.5V23H26.94V12.5H25.17ZM36.1371 13.355C36.1371 13.625 36.2371 13.86 36.4371 14.06C36.6471 14.25 36.8871 14.345 37.1571 14.345C37.4471 14.345 37.6871 14.25 37.8771 14.06C38.0771 13.86 38.1771 13.625 38.1771 13.355C38.1771 13.075 38.0771 12.84 37.8771 12.65C37.6871 12.46 37.4471 12.365 37.1571 12.365C36.8871 12.365 36.6471 12.46 36.4371 12.65C36.2371 12.84 36.1371 13.075 36.1371 13.355ZM36.3621 16.1V23H37.9521V16.1H36.3621ZM41.2015 21.35L39.8815 25.235L41.0815 25.565L42.8215 21.815L41.2015 21.35ZM59.2654 18.62C59.2654 18.05 59.1854 17.565 59.0254 17.165C58.8654 16.765 58.6204 16.465 58.2904 16.265C57.9704 16.055 57.5654 15.95 57.0754 15.95C56.6054 15.95 56.1854 16.055 55.8154 16.265C55.4554 16.475 55.1554 16.78 54.9154 17.18C54.7654 16.78 54.5204 16.475 54.1804 16.265C53.8504 16.055 53.4304 15.95 52.9204 15.95C52.4804 15.95 52.0954 16.05 51.7654 16.25C51.4454 16.44 51.1854 16.725 50.9854 17.105V16.1H49.3954V23H50.9854V18.8C50.9854 18.47 51.0404 18.19 51.1504 17.96C51.2604 17.73 51.4154 17.555 51.6154 17.435C51.8254 17.315 52.0704 17.255 52.3504 17.255C52.7504 17.255 53.0404 17.385 53.2204 17.645C53.4104 17.895 53.5054 18.28 53.5054 18.8V23H55.1254V18.8C55.1254 18.47 55.1804 18.19 55.2904 17.96C55.4104 17.73 55.5704 17.555 55.7704 17.435C55.9804 17.315 56.2204 17.255 56.4904 17.255C56.8904 17.255 57.1804 17.385 57.3604 17.645C57.5504 17.895 57.6454 18.28 57.6454 18.8V23H59.2654V18.62ZM67.3656 16.1H65.6256L63.4656 21.515L64.2306 21.56L62.0256 16.1H60.1656L62.9406 22.19L61.1406 26.3H62.8656L67.3656 16.1ZM77.2729 18.8V23H78.9379V18.62C78.9379 17.79 78.7329 17.14 78.3229 16.67C77.9129 16.19 77.3179 15.95 76.5379 15.95C76.0579 15.95 75.6429 16.05 75.2929 16.25C74.9529 16.45 74.6729 16.755 74.4529 17.165V16.1H72.8329V23H74.4529V18.8C74.4529 18.49 74.5179 18.22 74.6479 17.99C74.7779 17.75 74.9579 17.57 75.1879 17.45C75.4179 17.32 75.6829 17.255 75.9829 17.255C76.4229 17.255 76.7479 17.385 76.9579 17.645C77.1679 17.905 77.2729 18.29 77.2729 18.8ZM82.0267 20.855C82.0267 20.635 82.0767 20.45 82.1767 20.3C82.2867 20.15 82.4467 20.035 82.6567 19.955C82.8667 19.865 83.1417 19.82 83.4817 19.82C83.8717 19.82 84.2417 19.87 84.5917 19.97C84.9417 20.07 85.2717 20.23 85.5817 20.45V19.625C85.4917 19.515 85.3367 19.395 85.1167 19.265C84.8967 19.125 84.6167 19.005 84.2767 18.905C83.9467 18.805 83.5517 18.755 83.0917 18.755C82.2317 18.755 81.5667 18.955 81.0967 19.355C80.6267 19.745 80.3917 20.275 80.3917 20.945C80.3917 21.415 80.5017 21.815 80.7217 22.145C80.9417 22.475 81.2367 22.725 81.6067 22.895C81.9767 23.065 82.3767 23.15 82.8067 23.15C83.2067 23.15 83.5967 23.08 83.9767 22.94C84.3667 22.79 84.6867 22.57 84.9367 22.28C85.1967 21.98 85.3267 21.61 85.3267 21.17L85.0867 20.27C85.0867 20.61 85.0017 20.91 84.8317 21.17C84.6717 21.42 84.4567 21.61 84.1867 21.74C83.9267 21.87 83.6367 21.935 83.3167 21.935C83.0667 21.935 82.8417 21.895 82.6417 21.815C82.4517 21.735 82.3017 21.615 82.1917 21.455C82.0817 21.285 82.0267 21.085 82.0267 20.855ZM81.5167 17.9C81.6167 17.83 81.7667 17.745 81.9667 17.645C82.1767 17.535 82.4217 17.445 82.7017 17.375C82.9917 17.295 83.2967 17.255 83.6167 17.255C83.8267 17.255 84.0217 17.275 84.2017 17.315C84.3817 17.355 84.5367 17.42 84.6667 17.51C84.7967 17.6 84.8967 17.715 84.9667 17.855C85.0467 17.995 85.0867 18.175 85.0867 18.395V23H86.6767V18.08C86.6767 17.62 86.5517 17.235 86.3017 16.925C86.0517 16.605 85.7067 16.36 85.2667 16.19C84.8367 16.02 84.3367 15.935 83.7667 15.935C83.1267 15.935 82.5567 16.025 82.0567 16.205C81.5667 16.385 81.1667 16.57 80.8567 16.76L81.5167 17.9ZM98.4353 18.62C98.4353 18.05 98.3553 17.565 98.1953 17.165C98.0353 16.765 97.7903 16.465 97.4603 16.265C97.1403 16.055 96.7353 15.95 96.2453 15.95C95.7753 15.95 95.3553 16.055 94.9853 16.265C94.6253 16.475 94.3253 16.78 94.0853 17.18C93.9353 16.78 93.6903 16.475 93.3503 16.265C93.0203 16.055 92.6003 15.95 92.0903 15.95C91.6503 15.95 91.2653 16.05 90.9353 16.25C90.6153 16.44 90.3553 16.725 90.1553 17.105V16.1H88.5653V23H90.1553V18.8C90.1553 18.47 90.2103 18.19 90.3203 17.96C90.4303 17.73 90.5853 17.555 90.7853 17.435C90.9953 17.315 91.2403 17.255 91.5203 17.255C91.9203 17.255 92.2103 17.385 92.3903 17.645C92.5803 17.895 92.6753 18.28 92.6753 18.8V23H94.2953V18.8C94.2953 18.47 94.3503 18.19 94.4603 17.96C94.5803 17.73 94.7403 17.555 94.9403 17.435C95.1503 17.315 95.3903 17.255 95.6603 17.255C96.0603 17.255 96.3503 17.385 96.5303 17.645C96.7203 17.895 96.8153 18.28 96.8153 18.8V23H98.4353V18.62ZM103.504 23.15C104.304 23.15 104.989 22.995 105.559 22.685C106.129 22.375 106.594 21.91 106.954 21.29L105.559 20.72C105.339 21.09 105.064 21.365 104.734 21.545C104.404 21.725 104.019 21.815 103.579 21.815C103.159 21.815 102.799 21.725 102.499 21.545C102.209 21.365 101.989 21.105 101.839 20.765C101.689 20.415 101.614 19.99 101.614 19.49C101.624 18.99 101.704 18.57 101.854 18.23C102.004 17.89 102.224 17.63 102.514 17.45C102.804 17.27 103.154 17.18 103.564 17.18C103.904 17.18 104.199 17.255 104.449 17.405C104.709 17.555 104.909 17.765 105.049 18.035C105.199 18.305 105.274 18.625 105.274 18.995C105.274 19.065 105.254 19.155 105.214 19.265C105.184 19.365 105.154 19.445 105.124 19.505L105.619 18.815H100.939V19.925H106.999C107.009 19.885 107.014 19.82 107.014 19.73C107.024 19.64 107.029 19.555 107.029 19.475C107.029 18.735 106.889 18.105 106.609 17.585C106.339 17.055 105.949 16.65 105.439 16.37C104.929 16.09 104.309 15.95 103.579 15.95C102.849 15.95 102.214 16.1 101.674 16.4C101.134 16.69 100.714 17.105 100.414 17.645C100.124 18.185 99.9788 18.82 99.9788 19.55C99.9788 20.27 100.124 20.9 100.414 21.44C100.704 21.98 101.114 22.4 101.644 22.7C102.184 23 102.804 23.15 103.504 23.15ZM113.012 13.355C113.012 13.625 113.112 13.86 113.312 14.06C113.522 14.25 113.762 14.345 114.032 14.345C114.322 14.345 114.562 14.25 114.752 14.06C114.952 13.86 115.052 13.625 115.052 13.355C115.052 13.075 114.952 12.84 114.752 12.65C114.562 12.46 114.322 12.365 114.032 12.365C113.762 12.365 113.522 12.46 113.312 12.65C113.112 12.84 113.012 13.075 113.012 13.355ZM113.237 16.1V23H114.827V16.1H113.237ZM117.371 20.735L116.426 21.68C116.626 21.94 116.871 22.19 117.161 22.43C117.461 22.66 117.806 22.85 118.196 23C118.596 23.14 119.031 23.21 119.501 23.21C120.261 23.21 120.861 23.015 121.301 22.625C121.751 22.225 121.976 21.7 121.976 21.05C121.976 20.63 121.876 20.29 121.676 20.03C121.486 19.77 121.231 19.55 120.911 19.37C120.591 19.19 120.241 19.025 119.861 18.875C119.581 18.765 119.326 18.66 119.096 18.56C118.876 18.46 118.696 18.35 118.556 18.23C118.426 18.1 118.361 17.955 118.361 17.795C118.361 17.605 118.436 17.46 118.586 17.36C118.736 17.26 118.926 17.21 119.156 17.21C119.496 17.21 119.826 17.295 120.146 17.465C120.466 17.635 120.741 17.855 120.971 18.125L121.871 17.165C121.681 16.935 121.451 16.73 121.181 16.55C120.911 16.37 120.606 16.225 120.266 16.115C119.936 16.005 119.581 15.95 119.201 15.95C118.781 15.95 118.386 16.02 118.016 16.16C117.656 16.29 117.366 16.495 117.146 16.775C116.936 17.055 116.831 17.405 116.831 17.825C116.831 18.235 116.926 18.575 117.116 18.845C117.316 19.115 117.566 19.335 117.866 19.505C118.176 19.665 118.486 19.805 118.796 19.925C119.106 20.035 119.376 20.145 119.606 20.255C119.836 20.355 120.016 20.48 120.146 20.63C120.276 20.77 120.341 20.94 120.341 21.14C120.341 21.37 120.256 21.55 120.086 21.68C119.926 21.81 119.701 21.875 119.411 21.875C119.181 21.875 118.951 21.835 118.721 21.755C118.491 21.665 118.261 21.535 118.031 21.365C117.811 21.185 117.591 20.975 117.371 20.735ZM132.051 19.88L128.961 12.5H126.921L132.051 23.585L137.181 12.5H135.141L132.051 19.88ZM137.793 20.855C137.793 20.635 137.843 20.45 137.943 20.3C138.053 20.15 138.213 20.035 138.423 19.955C138.633 19.865 138.908 19.82 139.248 19.82C139.638 19.82 140.008 19.87 140.358 19.97C140.708 20.07 141.038 20.23 141.348 20.45V19.625C141.258 19.515 141.103 19.395 140.883 19.265C140.663 19.125 140.383 19.005 140.043 18.905C139.713 18.805 139.318 18.755 138.858 18.755C137.998 18.755 137.333 18.955 136.863 19.355C136.393 19.745 136.158 20.275 136.158 20.945C136.158 21.415 136.268 21.815 136.488 22.145C136.708 22.475 137.003 22.725 137.373 22.895C137.743 23.065 138.143 23.15 138.573 23.15C138.973 23.15 139.363 23.08 139.743 22.94C140.133 22.79 140.453 22.57 140.703 22.28C140.963 21.98 141.093 21.61 141.093 21.17L140.853 20.27C140.853 20.61 140.768 20.91 140.598 21.17C140.438 21.42 140.223 21.61 139.953 21.74C139.693 21.87 139.403 21.935 139.083 21.935C138.833 21.935 138.608 21.895 138.408 21.815C138.218 21.735 138.068 21.615 137.958 21.455C137.848 21.285 137.793 21.085 137.793 20.855ZM137.283 17.9C137.383 17.83 137.533 17.745 137.733 17.645C137.943 17.535 138.188 17.445 138.468 17.375C138.758 17.295 139.063 17.255 139.383 17.255C139.593 17.255 139.788 17.275 139.968 17.315C140.148 17.355 140.303 17.42 140.433 17.51C140.563 17.6 140.663 17.715 140.733 17.855C140.813 17.995 140.853 18.175 140.853 18.395V23H142.443V18.08C142.443 17.62 142.318 17.235 142.068 16.925C141.818 16.605 141.473 16.36 141.033 16.19C140.603 16.02 140.103 15.935 139.533 15.935C138.893 15.935 138.323 16.025 137.823 16.205C137.333 16.385 136.933 16.57 136.623 16.76L137.283 17.9ZM149.522 11.3V23H151.157V11.3H149.522ZM143.807 19.55C143.807 20.3 143.962 20.945 144.272 21.485C144.582 22.025 144.992 22.44 145.502 22.73C146.022 23.01 146.577 23.15 147.167 23.15C147.747 23.15 148.252 23.005 148.682 22.715C149.122 22.425 149.467 22.01 149.717 21.47C149.977 20.93 150.107 20.29 150.107 19.55C150.107 18.8 149.977 18.16 149.717 17.63C149.467 17.09 149.122 16.675 148.682 16.385C148.252 16.095 147.747 15.95 147.167 15.95C146.577 15.95 146.022 16.095 145.502 16.385C144.992 16.665 144.582 17.075 144.272 17.615C143.962 18.145 143.807 18.79 143.807 19.55ZM145.487 19.55C145.487 19.09 145.582 18.695 145.772 18.365C145.962 18.035 146.212 17.785 146.522 17.615C146.842 17.445 147.187 17.36 147.557 17.36C147.867 17.36 148.172 17.445 148.472 17.615C148.782 17.785 149.032 18.035 149.222 18.365C149.422 18.685 149.522 19.08 149.522 19.55C149.522 20.02 149.422 20.42 149.222 20.75C149.032 21.07 148.782 21.315 148.472 21.485C148.172 21.655 147.867 21.74 147.557 21.74C147.187 21.74 146.842 21.655 146.522 21.485C146.212 21.315 145.962 21.065 145.772 20.735C145.582 20.405 145.487 20.01 145.487 19.55ZM159.27 16.1H157.53L155.37 21.515L156.135 21.56L153.93 16.1H152.07L154.845 22.19L153.045 26.3H154.77L159.27 16.1ZM170.11 18.62C170.11 18.05 170.03 17.565 169.87 17.165C169.71 16.765 169.465 16.465 169.135 16.265C168.815 16.055 168.41 15.95 167.92 15.95C167.45 15.95 167.03 16.055 166.66 16.265C166.3 16.475 166 16.78 165.76 17.18C165.61 16.78 165.365 16.475 165.025 16.265C164.695 16.055 164.275 15.95 163.765 15.95C163.325 15.95 162.94 16.05 162.61 16.25C162.29 16.44 162.03 16.725 161.83 17.105V16.1H160.24V23H161.83V18.8C161.83 18.47 161.885 18.19 161.995 17.96C162.105 17.73 162.26 17.555 162.46 17.435C162.67 17.315 162.915 17.255 163.195 17.255C163.595 17.255 163.885 17.385 164.065 17.645C164.255 17.895 164.35 18.28 164.35 18.8V23H165.97V18.8C165.97 18.47 166.025 18.19 166.135 17.96C166.255 17.73 166.415 17.555 166.615 17.435C166.825 17.315 167.065 17.255 167.335 17.255C167.735 17.255 168.025 17.385 168.205 17.645C168.395 17.895 168.49 18.28 168.49 18.8V23H170.11V18.62Z" fill="#1387F1"/>
</g>
<defs>
<clipPath id="clip0_2294_1872">
<rect width="193" height="36" fill="white"/>
</clipPath>
</defs>
</svg>
