<svg width="228" height="36" viewBox="0 0 228 36" fill="none" xmlns="http://www.w3.org/2000/svg">
<g clip-path="url(#clip0_2305_1890)">
<path d="M6.63564 18.5C6.63564 8.28273 13.5785 0 22.143 0H212.912C221.245 0 228 8.05888 228 18C228 27.9411 221.245 36 212.912 36H17.3547H0L1.71495 33.7386C4.88197 29.5624 6.63564 24.1316 6.63564 18.5Z" fill="#E5F3FF"/>
<path d="M36.4225 14.135V23H38.2075V12.5H29.5525V23H31.3525V14.135H36.4225ZM42.0221 26.3V16.1H40.3871V26.3H42.0221ZM47.7371 19.55C47.7371 18.78 47.5821 18.125 47.2721 17.585C46.9621 17.045 46.5521 16.635 46.0421 16.355C45.5321 16.065 44.9771 15.92 44.3771 15.92C43.7871 15.92 43.2721 16.07 42.8321 16.37C42.4021 16.66 42.0671 17.075 41.8271 17.615C41.5971 18.155 41.4821 18.8 41.4821 19.55C41.4821 20.29 41.5971 20.935 41.8271 21.485C42.0671 22.025 42.4021 22.445 42.8321 22.745C43.2721 23.035 43.7871 23.18 44.3771 23.18C44.9771 23.18 45.5321 23.04 46.0421 22.76C46.5521 22.47 46.9621 22.055 47.2721 21.515C47.5821 20.965 47.7371 20.31 47.7371 19.55ZM46.0571 19.55C46.0571 20.01 45.9621 20.405 45.7721 20.735C45.5821 21.055 45.3271 21.3 45.0071 21.47C44.6971 21.63 44.3521 21.71 43.9721 21.71C43.6621 21.71 43.3571 21.63 43.0571 21.47C42.7571 21.3 42.5071 21.055 42.3071 20.735C42.1171 20.415 42.0221 20.02 42.0221 19.55C42.0221 19.08 42.1171 18.685 42.3071 18.365C42.5071 18.045 42.7571 17.805 43.0571 17.645C43.3571 17.475 43.6621 17.39 43.9721 17.39C44.3521 17.39 44.6971 17.475 45.0071 17.645C45.3271 17.805 45.5821 18.05 45.7721 18.38C45.9621 18.7 46.0571 19.09 46.0571 19.55ZM55.5351 17.6L55.6101 15.575L49.4151 21.5L49.3401 23.525L55.5351 17.6ZM50.9301 16.1H49.3401V23.525L50.9301 21.695V16.1ZM55.6101 15.575L54.0201 17.405V23H55.6101V15.575ZM58.7819 19.4V20.105H60.7769C60.9769 20.105 61.1469 20.125 61.2869 20.165C61.4369 20.205 61.5519 20.265 61.6319 20.345C61.7219 20.425 61.7919 20.515 61.8419 20.615C61.8919 20.715 61.9169 20.825 61.9169 20.945C61.9169 21.175 61.8269 21.375 61.6469 21.545C61.4669 21.715 61.1769 21.8 60.7769 21.8H58.7819V23H61.2719C62.0619 23 62.6269 22.82 62.9669 22.46C63.3169 22.09 63.4919 21.645 63.4919 21.125C63.4919 20.675 63.3819 20.325 63.1619 20.075C62.9419 19.825 62.6419 19.65 62.2619 19.55C61.8819 19.45 61.4519 19.4 60.9719 19.4H58.7819ZM58.7819 19.7H60.8219C61.2519 19.7 61.6419 19.64 61.9919 19.52C62.3519 19.39 62.6419 19.2 62.8619 18.95C63.0819 18.69 63.1919 18.365 63.1919 17.975C63.1919 17.525 63.0819 17.165 62.8619 16.895C62.6419 16.615 62.3519 16.415 61.9919 16.295C61.6419 16.165 61.2519 16.1 60.8219 16.1H58.7819V17.3H60.6269C60.9369 17.3 61.1769 17.375 61.3469 17.525C61.5269 17.675 61.6169 17.865 61.6169 18.095C61.6169 18.205 61.5919 18.31 61.5419 18.41C61.4919 18.51 61.4269 18.6 61.3469 18.68C61.2669 18.76 61.1619 18.82 61.0319 18.86C60.9119 18.9 60.7769 18.92 60.6269 18.92H58.7819V19.7ZM57.8369 16.1V23H59.4269V16.1H57.8369ZM65.4182 19.925H71.4782C71.4982 19.835 71.5082 19.755 71.5082 19.685C71.5082 19.605 71.5082 19.535 71.5082 19.475C71.5082 18.745 71.3682 18.12 71.0882 17.6C70.8082 17.07 70.4082 16.665 69.8882 16.385C69.3782 16.095 68.7682 15.95 68.0582 15.95C67.4082 15.95 66.8332 16.07 66.3332 16.31C65.8332 16.55 65.4282 16.885 65.1182 17.315C64.8182 17.745 64.6182 18.245 64.5182 18.815C64.4982 18.935 64.4832 19.055 64.4732 19.175C64.4632 19.295 64.4582 19.42 64.4582 19.55C64.4582 20.24 64.6032 20.86 64.8932 21.41C65.1832 21.95 65.5932 22.375 66.1232 22.685C66.6532 22.995 67.2732 23.15 67.9832 23.15C68.6132 23.15 69.1382 23.075 69.5582 22.925C69.9882 22.765 70.3482 22.545 70.6382 22.265C70.9382 21.985 71.2032 21.66 71.4332 21.29L70.0382 20.72C69.9082 20.94 69.7482 21.135 69.5582 21.305C69.3682 21.465 69.1482 21.59 68.8982 21.68C68.6582 21.77 68.3782 21.815 68.0582 21.815C67.6682 21.815 67.3232 21.735 67.0232 21.575C66.7332 21.405 66.5032 21.155 66.3332 20.825C66.1732 20.485 66.0932 20.06 66.0932 19.55L66.1232 19.13C66.1232 18.73 66.2082 18.385 66.3782 18.095C66.5482 17.795 66.7782 17.57 67.0682 17.42C67.3582 17.26 67.6832 17.18 68.0432 17.18C68.3932 17.18 68.6882 17.25 68.9282 17.39C69.1682 17.52 69.3532 17.71 69.4832 17.96C69.6232 18.2 69.7132 18.485 69.7532 18.815H65.4182V19.925ZM72.1092 16.1V17.525H76.4742V16.1H72.1092ZM73.5042 16.4V23H75.0942V16.4H73.5042ZM77.7073 21.35L76.3873 25.235L77.5873 25.565L79.3273 21.815L77.7073 21.35ZM92.4712 23H94.1962L92.2762 15.575L91.4212 17.825L92.4712 23ZM89.0962 21.59L89.5462 23.465L92.4262 18.23L92.2762 15.575L89.0962 21.59ZM89.5462 23.465L89.9962 21.59L86.8462 15.575L86.6962 18.23L89.5462 23.465ZM84.9412 23H86.6662L87.7162 17.825L86.8462 15.575L84.9412 23ZM95.7405 19.925H101.801C101.821 19.835 101.831 19.755 101.831 19.685C101.831 19.605 101.831 19.535 101.831 19.475C101.831 18.745 101.691 18.12 101.411 17.6C101.131 17.07 100.731 16.665 100.211 16.385C99.7005 16.095 99.0905 15.95 98.3805 15.95C97.7305 15.95 97.1555 16.07 96.6555 16.31C96.1555 16.55 95.7505 16.885 95.4405 17.315C95.1405 17.745 94.9405 18.245 94.8405 18.815C94.8205 18.935 94.8055 19.055 94.7955 19.175C94.7855 19.295 94.7805 19.42 94.7805 19.55C94.7805 20.24 94.9255 20.86 95.2155 21.41C95.5055 21.95 95.9155 22.375 96.4455 22.685C96.9755 22.995 97.5955 23.15 98.3055 23.15C98.9355 23.15 99.4605 23.075 99.8805 22.925C100.311 22.765 100.671 22.545 100.961 22.265C101.261 21.985 101.526 21.66 101.756 21.29L100.361 20.72C100.231 20.94 100.071 21.135 99.8805 21.305C99.6905 21.465 99.4705 21.59 99.2205 21.68C98.9805 21.77 98.7005 21.815 98.3805 21.815C97.9905 21.815 97.6455 21.735 97.3455 21.575C97.0555 21.405 96.8255 21.155 96.6555 20.825C96.4955 20.485 96.4155 20.06 96.4155 19.55L96.4455 19.13C96.4455 18.73 96.5305 18.385 96.7005 18.095C96.8705 17.795 97.1005 17.57 97.3905 17.42C97.6805 17.26 98.0055 17.18 98.3655 17.18C98.7155 17.18 99.0105 17.25 99.2505 17.39C99.4905 17.52 99.6755 17.71 99.8055 17.96C99.9455 18.2 100.036 18.485 100.076 18.815H95.7405V19.925ZM104.096 20.03H109.376V18.695H104.096V20.03ZM108.506 16.1V23H110.096V16.1H108.506ZM103.391 16.1V23H104.981V16.1H103.391ZM113.576 23L115.871 19.58H114.221L111.851 23H113.576ZM118.061 23V16.1H116.426V23H118.061ZM117.026 19.115H115.016C114.766 19.115 114.556 19.085 114.386 19.025C114.216 18.965 114.086 18.875 113.996 18.755C113.906 18.635 113.861 18.475 113.861 18.275C113.861 18.085 113.906 17.93 113.996 17.81C114.086 17.69 114.216 17.6 114.386 17.54C114.556 17.48 114.766 17.45 115.016 17.45H117.026V16.1H114.881C114.411 16.1 113.976 16.17 113.576 16.31C113.176 16.45 112.856 16.675 112.616 16.985C112.376 17.285 112.256 17.69 112.256 18.2C112.256 18.71 112.376 19.125 112.616 19.445C112.856 19.755 113.176 19.985 113.576 20.135C113.976 20.275 114.411 20.345 114.881 20.345H117.026V19.115ZM127.025 19.55C127.905 19.57 128.575 19.42 129.035 19.1C129.495 18.77 129.725 18.355 129.725 17.855C129.725 17.505 129.615 17.185 129.395 16.895C129.175 16.605 128.87 16.375 128.48 16.205C128.09 16.035 127.65 15.95 127.16 15.95C126.64 15.95 126.175 16.05 125.765 16.25C125.365 16.45 125.05 16.72 124.82 17.06C124.59 17.4 124.475 17.785 124.475 18.215H126.035C126.035 18.055 126.075 17.905 126.155 17.765C126.245 17.615 126.375 17.495 126.545 17.405C126.715 17.305 126.925 17.255 127.175 17.255C127.475 17.255 127.71 17.325 127.88 17.465C128.06 17.605 128.15 17.79 128.15 18.02C128.15 18.25 128.06 18.445 127.88 18.605C127.71 18.755 127.425 18.83 127.025 18.83V19.55ZM127.13 23.15C127.67 23.15 128.16 23.065 128.6 22.895C129.04 22.715 129.385 22.465 129.635 22.145C129.895 21.815 130.025 21.425 130.025 20.975C130.025 20.335 129.755 19.86 129.215 19.55C128.685 19.23 127.955 19.08 127.025 19.1V19.895C127.335 19.895 127.595 19.935 127.805 20.015C128.025 20.095 128.19 20.21 128.3 20.36C128.41 20.51 128.465 20.69 128.465 20.9C128.465 21.1 128.41 21.275 128.3 21.425C128.2 21.565 128.05 21.675 127.85 21.755C127.65 21.835 127.41 21.875 127.13 21.875C126.7 21.875 126.375 21.77 126.155 21.56C125.945 21.34 125.805 21.07 125.735 20.75H124.145C124.225 21.46 124.52 22.04 125.03 22.49C125.55 22.93 126.25 23.15 127.13 23.15ZM131.211 19.55C131.211 20.25 131.371 20.875 131.691 21.425C132.021 21.965 132.466 22.39 133.026 22.7C133.586 23 134.221 23.15 134.931 23.15C135.641 23.15 136.271 23 136.821 22.7C137.381 22.39 137.826 21.965 138.156 21.425C138.486 20.875 138.651 20.25 138.651 19.55C138.651 18.84 138.486 18.215 138.156 17.675C137.826 17.135 137.381 16.715 136.821 16.415C136.271 16.105 135.641 15.95 134.931 15.95C134.221 15.95 133.586 16.105 133.026 16.415C132.466 16.715 132.021 17.135 131.691 17.675C131.371 18.215 131.211 18.84 131.211 19.55ZM132.876 19.55C132.876 19.12 132.966 18.74 133.146 18.41C133.326 18.08 133.571 17.825 133.881 17.645C134.191 17.465 134.541 17.375 134.931 17.375C135.311 17.375 135.656 17.465 135.966 17.645C136.286 17.825 136.536 18.08 136.716 18.41C136.896 18.74 136.986 19.12 136.986 19.55C136.986 19.98 136.896 20.36 136.716 20.69C136.536 21.01 136.286 21.265 135.966 21.455C135.656 21.635 135.311 21.725 134.931 21.725C134.541 21.725 134.191 21.635 133.881 21.455C133.571 21.265 133.326 21.01 133.146 20.69C132.966 20.36 132.876 19.98 132.876 19.55ZM141.223 19.4V20.105H143.218C143.418 20.105 143.588 20.125 143.728 20.165C143.878 20.205 143.993 20.265 144.073 20.345C144.163 20.425 144.233 20.515 144.283 20.615C144.333 20.715 144.358 20.825 144.358 20.945C144.358 21.175 144.268 21.375 144.088 21.545C143.908 21.715 143.618 21.8 143.218 21.8H141.223V23H143.713C144.503 23 145.068 22.82 145.408 22.46C145.758 22.09 145.933 21.645 145.933 21.125C145.933 20.675 145.823 20.325 145.603 20.075C145.383 19.825 145.083 19.65 144.703 19.55C144.323 19.45 143.893 19.4 143.413 19.4H141.223ZM141.223 19.7H143.263C143.693 19.7 144.083 19.64 144.433 19.52C144.793 19.39 145.083 19.2 145.303 18.95C145.523 18.69 145.633 18.365 145.633 17.975C145.633 17.525 145.523 17.165 145.303 16.895C145.083 16.615 144.793 16.415 144.433 16.295C144.083 16.165 143.693 16.1 143.263 16.1H141.223V17.3H143.068C143.378 17.3 143.618 17.375 143.788 17.525C143.968 17.675 144.058 17.865 144.058 18.095C144.058 18.205 144.033 18.31 143.983 18.41C143.933 18.51 143.868 18.6 143.788 18.68C143.708 18.76 143.603 18.82 143.473 18.86C143.353 18.9 143.218 18.92 143.068 18.92H141.223V19.7ZM140.278 16.1V23H141.868V16.1H140.278ZM153.456 16.1H151.716L149.556 21.515L150.321 21.56L148.116 16.1H146.256L149.031 22.19L147.231 26.3H148.956L153.456 16.1ZM153.467 16.1V17.525H157.832V16.1H153.467ZM154.862 16.4V23H156.452V16.4H154.862ZM164.92 17.585H166.735C167.395 17.585 167.975 17.49 168.475 17.3C168.985 17.11 169.38 16.835 169.66 16.475C169.95 16.105 170.095 15.66 170.095 15.14C170.095 14.54 169.95 14.045 169.66 13.655C169.38 13.265 168.985 12.975 168.475 12.785C167.975 12.595 167.395 12.5 166.735 12.5H163.57V23H166.915C167.655 23 168.305 22.895 168.865 22.685C169.435 22.465 169.88 22.13 170.2 21.68C170.53 21.23 170.695 20.66 170.695 19.97C170.695 19.47 170.595 19.04 170.395 18.68C170.195 18.32 169.915 18.025 169.555 17.795C169.205 17.565 168.805 17.395 168.355 17.285C167.905 17.175 167.425 17.12 166.915 17.12H164.92V18.095H166.81C167.11 18.095 167.385 18.13 167.635 18.2C167.885 18.26 168.1 18.365 168.28 18.515C168.47 18.655 168.615 18.835 168.715 19.055C168.825 19.265 168.88 19.51 168.88 19.79C168.88 20.18 168.79 20.505 168.61 20.765C168.43 21.025 168.185 21.22 167.875 21.35C167.565 21.48 167.21 21.545 166.81 21.545H165.34V13.955H166.615C167.105 13.955 167.505 14.075 167.815 14.315C168.125 14.555 168.28 14.895 168.28 15.335C168.28 15.625 168.21 15.875 168.07 16.085C167.93 16.285 167.735 16.44 167.485 16.55C167.235 16.66 166.945 16.715 166.615 16.715H164.92V17.585ZM173.45 20.96C173.45 20.72 173.505 20.515 173.615 20.345C173.735 20.165 173.91 20.03 174.14 19.94C174.38 19.84 174.67 19.79 175.01 19.79C175.43 19.79 175.8 19.845 176.12 19.955C176.44 20.055 176.755 20.22 177.065 20.45V19.595C176.985 19.495 176.84 19.38 176.63 19.25C176.42 19.12 176.155 19.005 175.835 18.905C175.525 18.805 175.17 18.755 174.77 18.755C174.17 18.755 173.645 18.845 173.195 19.025C172.755 19.205 172.415 19.465 172.175 19.805C171.935 20.145 171.815 20.55 171.815 21.02C171.815 21.49 171.92 21.885 172.13 22.205C172.35 22.515 172.64 22.75 173 22.91C173.37 23.07 173.78 23.15 174.23 23.15C174.71 23.15 175.145 23.07 175.535 22.91C175.925 22.74 176.235 22.5 176.465 22.19C176.695 21.87 176.81 21.49 176.81 21.05L176.57 20.27C176.57 20.67 176.49 20.99 176.33 21.23C176.17 21.47 175.95 21.645 175.67 21.755C175.39 21.865 175.075 21.92 174.725 21.92C174.485 21.92 174.27 21.885 174.08 21.815C173.89 21.735 173.735 21.625 173.615 21.485C173.505 21.345 173.45 21.17 173.45 20.96ZM173.09 17.915C173.2 17.845 173.355 17.76 173.555 17.66C173.765 17.55 174.01 17.455 174.29 17.375C174.57 17.295 174.875 17.255 175.205 17.255C175.585 17.255 175.905 17.345 176.165 17.525C176.435 17.695 176.57 17.94 176.57 18.26V23H178.16V18.08C178.16 17.62 178.035 17.235 177.785 16.925C177.545 16.605 177.21 16.36 176.78 16.19C176.35 16.02 175.85 15.935 175.28 15.935C174.66 15.935 174.11 16.025 173.63 16.205C173.15 16.385 172.755 16.57 172.445 16.76L173.09 17.915ZM184.051 18.425L185.926 22.55L187.606 22.37L184.051 15.575L180.496 22.37L182.176 22.55L184.051 18.425ZM186.901 23V24.35H188.476V21.62H179.626V24.35H181.276V23H186.901ZM196.438 17.6L196.513 15.575L190.318 21.5L190.243 23.525L196.438 17.6ZM191.833 16.1H190.243V23.525L191.833 21.695V16.1ZM196.513 15.575L194.923 17.405V23H196.513V15.575ZM205.22 23H206.945L205.025 15.575L204.17 17.825L205.22 23ZM201.845 21.59L202.295 23.465L205.175 18.23L205.025 15.575L201.845 21.59ZM202.295 23.465L202.745 21.59L199.595 15.575L199.445 18.23L202.295 23.465ZM197.69 23H199.415L200.465 17.825L199.595 15.575L197.69 23Z" fill="#1387F1"/>
</g>
<defs>
<clipPath id="clip0_2305_1890">
<rect width="228" height="36" fill="white"/>
</clipPath>
</defs>
</svg>
